{
  "source": "C:\\Users\\Peter\\Desktop\\stuff\\MIUN\\quantitative_research\\video_compression\\videos\\HEVC_CLASS_B\\Cactus_1920x1080_50.y4m",
  "output": "C:\\Users\\Peter\\Desktop\\stuff\\MIUN\\quantitative_research\\video_compression\\compressed_videos\\HEVC_CLASS_B\\hevc\\1\\Cactus_1920x1080_50_hevc.mp4",
  "codec": "hevc",
  "ok": "Input #0, yuv4mpegpipe, from 'C:\\Users\\Peter\\Desktop\\stuff\\MIUN\\quantitative_research\\video_compression\\videos\\HEVC_CLASS_B\\Cactus_1920x1080_50.y4m':\n  Duration: 00:00:10.00, start: 0.000000, bitrate: 1244162 kb/s\n  Stream #0:0: Video: rawvideo (I420 / 0x30323449), yuv420p(progressive), 1920x1080, 50 fps, 50 tbr, 50 tbn\n[out#0/mp4 @ 0000027ec006b580] Codec AVOption b:a (set bitrate (in bits/s)) has not been used for any stream. The most likely reason is either wrong type (e.g. a video option with no video streams) or that it is a private option of some decoder which was not actually used for any stream.\nStream mapping:\n  Stream #0:0 -> #0:0 (rawvideo (native) -> hevc (libx265))\nPress [q] to stop, [?] for help\n[libx265 @ 0000027ec006c940] Unknown option: \"aq-mode.\nx265 [info]: HEVC encoder version 4.1+190-8f11c33ac\nx265 [info]: build info [Windows][GCC 15.1.0][64 bit] 10bit\nx265 [info]: using cpu capabilities: MMX2 SSE2Fast LZCNT SSSE3 SSE4.2 AVX FMA3 BMI2 AVX2\nx265 [info]: Main 10 profile, Level-4.1 (Main tier)\nx265 [info]: Thread pool created using 12 threads\nx265 [info]: Slices                              : 1\nx265 [info]: frame threads / pool features       : 3 / wpp(17 rows)\nx265 [info]: Coding QT: max CU size, min CU size : 64 / 8\nx265 [info]: Residual QT: max TU size, max depth : 32 / 1 inter / 1 intra\nx265 [info]: ME / range / subpel / merge         : star / 57 / 3 / 3\nx265 [info]: Keyframe min / max / scenecut / bias  : 25 / 250 / 40 / 5.00 \nx265 [info]: Lookahead / bframes / badapt        : 25 / 4 / 2\nx265 [info]: b-pyramid / weightp / weightb       : 1 / 1 / 0\nx265 [info]: References / ref-limit  cu / depth  : 4 / on / on\nx265 [info]: AQ: mode / str / qg-size / cu-tree  : 2 / 1.0 / 32 / 1\nx265 [info]: Rate Control / qCompress            : ABR-1000 kbps / 0.60\nx265 [info]: VBV/HRD buffer / max-rate / init    : 1000 / 1000 / 0.750\nx265 [info]: tools: rect limit-modes rd=4 psy-rd=2.00 rdoq=2 psy-rdoq=1.00\nx265 [info]: tools: rskip mode=1 signhide tmvp strong-intra-smoothing lslices=4\nx265 [info]: tools: deblock sao dhdr10-info\nOutput #0, mp4, to 'C:\\Users\\Peter\\Desktop\\stuff\\MIUN\\quantitative_research\\video_compression\\compressed_videos\\HEVC_CLASS_B\\hevc\\1\\Cactus_1920x1080_50_hevc.mp4':\n  Metadata:\n    encoder         : Lavf62.3.100\n  Stream #0:0: Video: hevc (hev1 / 0x31766568), yuv420p10le(tv, progressive), 1920x1080, q=2-31, 1000 kb/s, 50 fps, 12800 tbn\n    Metadata:\n      encoder         : Lavc62.11.100 libx265\n    Side data:\n      cpb: bitrate max/min/avg: 1000000/0/1000000 buffer size: 1000000 vbv_delay: N/A\nframe=    0 fps=0.0 q=0.0 size=       0KiB time=N/A bitrate=N/A speed=N/A elapsed=0:00:00.50    \nframe=    0 fps=0.0 q=0.0 size=       0KiB time=N/A bitrate=N/A speed=N/A elapsed=0:00:01.09    \nframe=    0 fps=0.0 q=0.0 size=       0KiB time=N/A bitrate=N/A speed=N/A elapsed=0:00:01.64    \nframe=    0 fps=0.0 q=0.0 size=       0KiB time=N/A bitrate=N/A speed=N/A elapsed=0:00:02.18    \nframe=    0 fps=0.0 q=0.0 size=       0KiB time=N/A bitrate=N/A speed=N/A elapsed=0:00:02.72    \nframe=    0 fps=0.0 q=0.0 size=       0KiB time=N/A bitrate=N/A speed=N/A elapsed=0:00:03.26    \nframe=    0 fps=0.0 q=0.0 size=       0KiB time=N/A bitrate=N/A speed=N/A elapsed=0:00:03.80    \nframe=    0 fps=0.0 q=0.0 size=       0KiB time=N/A bitrate=N/A speed=N/A elapsed=0:00:04.33    \nframe=    0 fps=0.0 q=0.0 size=       0KiB time=N/A bitrate=N/A speed=N/A elapsed=0:00:04.87    \nframe=    0 fps=0.0 q=0.0 size=       0KiB time=N/A bitrate=N/A speed=N/A elapsed=0:00:05.38    \nframe=    1 fps=0.2 q=48.2 size=       0KiB time=N/A bitrate=N/A speed=N/A elapsed=0:00:05.91    \nframe=    1 fps=0.2 q=48.2 size=       0KiB time=-00:00:00.02 bitrate=N/A speed=N/A elapsed=0:00:06.50    \nframe=    1 fps=0.1 q=48.2 size=       0KiB time=-00:00:00.02 bitrate=N/A speed=N/A elapsed=0:00:07.04    \nframe=    1 fps=0.1 q=48.2 size=       0KiB time=-00:00:00.02 bitrate=N/A speed=N/A elapsed=0:00:07.55    \nframe=    3 fps=0.4 q=51.0 size=       0KiB time=00:00:00.02 bitrate=  17.6kbits/s speed=0.00247x elapsed=0:00:08.09    \nframe=    3 fps=0.3 q=51.0 size=       0KiB time=00:00:00.02 bitrate=  17.6kbits/s speed=0.00231x elapsed=0:00:08.64    \nframe=    4 fps=0.4 q=51.0 size=       0KiB time=00:00:00.04 bitrate=   8.8kbits/s speed=0.00433x elapsed=0:00:09.24    \nframe=    5 fps=0.5 q=51.0 size=       0KiB time=00:00:00.06 bitrate=   5.9kbits/s speed=0.00614x elapsed=0:00:09.76    \nframe=    6 fps=0.6 q=48.2 size=       0KiB time=00:00:00.06 bitrate=   5.9kbits/s speed=0.00582x elapsed=0:00:10.31    \nframe=    7 fps=0.6 q=51.0 size=       0KiB time=00:00:00.10 bitrate=   3.5kbits/s speed=0.00921x elapsed=0:00:10.85    \nframe=    8 fps=0.7 q=49.6 size=       0KiB time=00:00:00.12 bitrate=   2.9kbits/s speed=0.0105x elapsed=0:00:11.42    \nframe=    8 fps=0.7 q=49.6 size=       0KiB time=00:00:00.12 bitrate=   2.9kbits/s speed=0.01x elapsed=0:00:11.95    \nframe=    9 fps=0.7 q=49.2 size=       0KiB time=00:00:00.12 bitrate=   2.9kbits/s speed=0.00961x elapsed=0:00:12.49    \nframe=    9 fps=0.7 q=49.2 size=       0KiB time=00:00:00.14 bitrate=   2.5kbits/s speed=0.0108x elapsed=0:00:13.01    \nframe=   10 fps=0.7 q=48.7 size=       0KiB time=00:00:00.16 bitrate=   2.2kbits/s speed=0.0118x elapsed=0:00:13.57    \nframe=   10 fps=0.7 q=48.7 size=       0KiB time=00:00:00.16 bitrate=   2.2kbits/s speed=0.0113x elapsed=0:00:14.16    \nframe=   10 fps=0.7 q=48.7 size=       0KiB time=00:00:00.16 bitrate=   2.2kbits/s speed=0.0109x elapsed=0:00:14.70    \nframe=   11 fps=0.7 q=43.4 size=       0KiB time=00:00:00.18 bitrate=   2.0kbits/s speed=0.0118x elapsed=0:00:15.23    \nframe=   12 fps=0.8 q=49.9 size=       0KiB time=00:00:00.18 bitrate=   2.0kbits/s speed=0.0114x elapsed=0:00:15.79    \nframe=   12 fps=0.7 q=49.9 size=       0KiB time=00:00:00.20 bitrate=   1.8kbits/s speed=0.0122x elapsed=0:00:16.34    \nframe=   13 fps=0.8 q=49.9 size=       0KiB time=00:00:00.22 bitrate=   1.6kbits/s speed=0.013x elapsed=0:00:16.86    \nframe=   14 fps=0.8 q=50.9 size=       0KiB time=00:00:00.24 bitrate=   1.5kbits/s speed=0.0138x elapsed=0:00:17.41    \nframe=   14 fps=0.8 q=50.9 size=       0KiB time=00:00:00.24 bitrate=   1.5kbits/s speed=0.0134x elapsed=0:00:17.93    \nframe=   15 fps=0.8 q=45.8 size=       0KiB time=00:00:00.26 bitrate=   1.4kbits/s speed=0.0141x elapsed=0:00:18.45    \nframe=   15 fps=0.8 q=45.8 size=       0KiB time=00:00:00.26 bitrate=   1.4kbits/s speed=0.0137x elapsed=0:00:18.98    \nframe=   16 fps=0.8 q=48.8 size=       0KiB time=00:00:00.28 bitrate=   1.3kbits/s speed=0.0144x elapsed=0:00:19.50    \nframe=   17 fps=0.8 q=50.9 size=       0KiB time=00:00:00.30 bitrate=   1.2kbits/s speed=0.015x elapsed=0:00:20.04    \nframe=   17 fps=0.8 q=50.9 size=       0KiB time=00:00:00.30 bitrate=   1.2kbits/s speed=0.0146x elapsed=0:00:20.57    \nframe=   18 fps=0.9 q=49.6 size=       0KiB time=00:00:00.32 bitrate=   1.1kbits/s speed=0.0152x elapsed=0:00:21.11    \nframe=   18 fps=0.8 q=49.6 size=       0KiB time=00:00:00.32 bitrate=   1.1kbits/s speed=0.0148x elapsed=0:00:21.68    \nframe=   19 fps=0.9 q=49.8 size=       0KiB time=00:00:00.34 bitrate=   1.0kbits/s speed=0.0153x elapsed=0:00:22.22    \nframe=   19 fps=0.8 q=49.8 size=       0KiB time=00:00:00.34 bitrate=   1.0kbits/s speed=0.0149x elapsed=0:00:22.74    \nframe=   19 fps=0.8 q=49.8 size=       0KiB time=00:00:00.34 bitrate=   1.0kbits/s speed=0.0146x elapsed=0:00:23.27    \nframe=   20 fps=0.8 q=43.8 size=       0KiB time=00:00:00.36 bitrate=   1.0kbits/s speed=0.0151x elapsed=0:00:23.80    \nframe=   21 fps=0.9 q=49.1 size=       0KiB time=00:00:00.38 bitrate=   0.9kbits/s speed=0.0156x elapsed=0:00:24.34    \nframe=   22 fps=0.9 q=49.7 size=       0KiB time=00:00:00.40 bitrate=   0.9kbits/s speed=0.0161x elapsed=0:00:24.86    \nframe=   23 fps=0.9 q=48.8 size=       0KiB time=00:00:00.42 bitrate=   0.8kbits/s speed=0.0165x elapsed=0:00:25.37    \nframe=   23 fps=0.9 q=48.8 size=       0KiB time=00:00:00.42 bitrate=   0.8kbits/s speed=0.0162x elapsed=0:00:25.91    \nframe=   24 fps=0.9 q=43.7 size=       0KiB time=00:00:00.44 bitrate=   0.8kbits/s speed=0.0166x elapsed=0:00:26.46    \nframe=   25 fps=0.9 q=48.2 size=       0KiB time=00:00:00.46 bitrate=   0.8kbits/s speed=0.017x elapsed=0:00:26.98    \nframe=   25 fps=0.9 q=48.2 size=       0KiB time=00:00:00.46 bitrate=   0.8kbits/s speed=0.0167x elapsed=0:00:27.50    \nframe=   26 fps=0.9 q=48.9 size=       0KiB time=00:00:00.48 bitrate=   0.7kbits/s speed=0.0171x elapsed=0:00:28.05    \nframe=   26 fps=0.9 q=48.9 size=       0KiB time=00:00:00.48 bitrate=   0.7kbits/s speed=0.0168x elapsed=0:00:28.56    \nframe=   27 fps=0.9 q=47.9 size=       0KiB time=00:00:00.50 bitrate=   0.7kbits/s speed=0.0172x elapsed=0:00:29.14    \nframe=   28 fps=0.9 q=43.7 size=       0KiB time=00:00:00.52 bitrate=   0.7kbits/s speed=0.0175x elapsed=0:00:29.66    \nframe=   28 fps=0.9 q=43.7 size=       0KiB time=00:00:00.52 bitrate=   0.7kbits/s speed=0.0172x elapsed=0:00:30.17    \nframe=   29 fps=0.9 q=46.9 size=       0KiB time=00:00:00.54 bitrate=   0.7kbits/s speed=0.0176x elapsed=0:00:30.69    \nframe=   30 fps=1.0 q=48.5 size=       0KiB time=00:00:00.56 bitrate=   0.6kbits/s speed=0.0179x elapsed=0:00:31.24    \nframe=   30 fps=0.9 q=48.5 size=       0KiB time=00:00:00.56 bitrate=   0.6kbits/s speed=0.0176x elapsed=0:00:31.78    \nframe=   31 fps=1.0 q=48.6 size=       0KiB time=00:00:00.58 bitrate=   0.6kbits/s speed=0.0179x elapsed=0:00:32.34    \nframe=   31 fps=0.9 q=48.6 size=       0KiB time=00:00:00.58 bitrate=   0.6kbits/s speed=0.0176x elapsed=0:00:32.86    \nframe=   32 fps=1.0 q=43.7 size=       0KiB time=00:00:00.60 bitrate=   0.6kbits/s speed=0.018x elapsed=0:00:33.40    \nframe=   32 fps=0.9 q=43.7 size=       0KiB time=00:00:00.60 bitrate=   0.6kbits/s speed=0.0177x elapsed=0:00:33.94    \nframe=   33 fps=1.0 q=47.2 size=       0KiB time=00:00:00.62 bitrate=   0.6kbits/s speed=0.018x elapsed=0:00:34.50    \nframe=   33 fps=0.9 q=47.2 size=       0KiB time=00:00:00.62 bitrate=   0.6kbits/s speed=0.0177x elapsed=0:00:35.02    \nframe=   34 fps=1.0 q=48.6 size=       0KiB time=00:00:00.64 bitrate=   0.6kbits/s speed=0.018x elapsed=0:00:35.56    \nframe=   34 fps=0.9 q=48.6 size=       0KiB time=00:00:00.64 bitrate=   0.6kbits/s speed=0.0177x elapsed=0:00:36.10    \nframe=   35 fps=1.0 q=47.6 size=       0KiB time=00:00:00.66 bitrate=   0.5kbits/s speed=0.018x elapsed=0:00:36.65    \nframe=   36 fps=1.0 q=43.0 size=       0KiB time=00:00:00.68 bitrate=   0.5kbits/s speed=0.0183x elapsed=0:00:37.21    \nframe=   37 fps=1.0 q=46.7 size=       0KiB time=00:00:00.70 bitrate=   0.5kbits/s speed=0.0185x elapsed=0:00:37.73    \nframe=   37 fps=1.0 q=46.7 size=       0KiB time=00:00:00.70 bitrate=   0.5kbits/s speed=0.0183x elapsed=0:00:38.26    \nframe=   38 fps=1.0 q=47.7 size=       0KiB time=00:00:00.70 bitrate=   0.5kbits/s speed=0.018x elapsed=0:00:38.80    \nframe=   39 fps=1.0 q=47.7 size=       0KiB time=00:00:00.74 bitrate=   0.5kbits/s speed=0.0188x elapsed=0:00:39.36    \nframe=   39 fps=1.0 q=47.7 size=       0KiB time=00:00:00.74 bitrate=   0.5kbits/s speed=0.0186x elapsed=0:00:39.87    \nframe=   41 fps=1.0 q=46.8 size=       0KiB time=00:00:00.78 bitrate=   0.5kbits/s speed=0.0193x elapsed=0:00:40.41    \nframe=   41 fps=1.0 q=46.8 size=       0KiB time=00:00:00.78 bitrate=   0.5kbits/s speed=0.019x elapsed=0:00:40.96    \nframe=   41 fps=1.0 q=46.8 size=       0KiB time=00:00:00.78 bitrate=   0.5kbits/s speed=0.0188x elapsed=0:00:41.47    \nframe=   41 fps=1.0 q=46.8 size=       0KiB time=00:00:00.78 bitrate=   0.5kbits/s speed=0.0185x elapsed=0:00:42.07    \nframe=   42 fps=1.0 q=47.8 size=       0KiB time=00:00:00.80 bitrate=   0.4kbits/s speed=0.0188x elapsed=0:00:42.58    \nframe=   42 fps=1.0 q=47.8 size=       0KiB time=00:00:00.80 bitrate=   0.4kbits/s speed=0.0186x elapsed=0:00:43.12    \nframe=   43 fps=1.0 q=47.7 size=       0KiB time=00:00:00.82 bitrate=   0.4kbits/s speed=0.0188x elapsed=0:00:43.64    \nframe=   45 fps=1.0 q=46.8 size=       0KiB time=00:00:00.84 bitrate=   0.4kbits/s speed=0.019x elapsed=0:00:44.16    \nframe=   45 fps=1.0 q=46.8 size=       0KiB time=00:00:00.86 bitrate=   0.4kbits/s speed=0.0192x elapsed=0:00:44.70    \nframe=   46 fps=1.0 q=47.7 size=       0KiB time=00:00:00.88 bitrate=   0.4kbits/s speed=0.0195x elapsed=0:00:45.22    \nframe=   46 fps=1.0 q=47.7 size=       0KiB time=00:00:00.88 bitrate=   0.4kbits/s speed=0.0192x elapsed=0:00:45.79    \nframe=   47 fps=1.0 q=47.7 size=       0KiB time=00:00:00.90 bitrate=   0.4kbits/s speed=0.0194x elapsed=0:00:46.31    \nframe=   47 fps=1.0 q=47.7 size=       0KiB time=00:00:00.90 bitrate=   0.4kbits/s speed=0.0192x elapsed=0:00:46.83    \nframe=   47 fps=1.0 q=47.7 size=       0KiB time=00:00:00.90 bitrate=   0.4kbits/s speed=0.019x elapsed=0:00:47.34    \nframe=   49 fps=1.0 q=46.6 size=       0KiB time=00:00:00.94 bitrate=   0.4kbits/s speed=0.0196x elapsed=0:00:47.87    \nframe=   49 fps=1.0 q=46.6 size=       0KiB time=00:00:00.94 bitrate=   0.4kbits/s speed=0.0194x elapsed=0:00:48.39    \nframe=   49 fps=1.0 q=46.6 size=       0KiB time=00:00:00.94 bitrate=   0.4kbits/s speed=0.0192x elapsed=0:00:48.91    \nframe=   50 fps=1.0 q=47.7 size=       0KiB time=00:00:00.96 bitrate=   0.4kbits/s speed=0.0194x elapsed=0:00:49.42    \nframe=   51 fps=1.0 q=47.7 size=       0KiB time=00:00:00.98 bitrate=   0.4kbits/s speed=0.0196x elapsed=0:00:49.95    \nframe=   51 fps=1.0 q=47.7 size=       0KiB time=00:00:00.98 bitrate=   0.4kbits/s speed=0.0194x elapsed=0:00:50.52    \nframe=   51 fps=1.0 q=47.7 size=       0KiB time=00:00:00.98 bitrate=   0.4kbits/s speed=0.0192x elapsed=0:00:51.03    \nframe=   51 fps=1.0 q=47.7 size=       0KiB time=00:00:00.98 bitrate=   0.4kbits/s speed=0.019x elapsed=0:00:51.56    \nframe=   52 fps=1.0 q=42.6 size=       0KiB time=00:00:00.98 bitrate=   0.4kbits/s speed=0.0188x elapsed=0:00:52.08    \nframe=   52 fps=1.0 q=42.6 size=       0KiB time=00:00:01.00 bitrate=   0.4kbits/s speed=0.019x elapsed=0:00:52.66    \nframe=   53 fps=1.0 q=46.2 size=       0KiB time=00:00:01.02 bitrate=   0.3kbits/s speed=0.0192x elapsed=0:00:53.18    \nframe=   53 fps=1.0 q=46.2 size=       0KiB time=00:00:01.02 bitrate=   0.3kbits/s speed=0.019x elapsed=0:00:53.70    \nframe=   54 fps=1.0 q=46.7 size=       0KiB time=00:00:01.04 bitrate=   0.3kbits/s speed=0.0192x elapsed=0:00:54.23    \nframe=   55 fps=1.0 q=46.9 size=       0KiB time=00:00:01.06 bitrate=   0.3kbits/s speed=0.0194x elapsed=0:00:54.76    \nframe=   55 fps=1.0 q=46.9 size=       0KiB time=00:00:01.06 bitrate=   0.3kbits/s speed=0.0192x elapsed=0:00:55.30    \nframe=   56 fps=1.0 q=46.9 size=       0KiB time=00:00:01.08 bitrate=   0.3kbits/s speed=0.0193x elapsed=0:00:55.82    \nframe=   57 fps=1.0 q=42.9 size=       0KiB time=00:00:01.10 bitrate=   0.3kbits/s speed=0.0195x elapsed=0:00:56.36    \nframe=   58 fps=1.0 q=46.7 size=       0KiB time=00:00:01.12 bitrate=   0.3kbits/s speed=0.0197x elapsed=0:00:56.89    \nframe=   58 fps=1.0 q=46.7 size=       0KiB time=00:00:01.12 bitrate=   0.3kbits/s speed=0.0195x elapsed=0:00:57.44    \nframe=   58 fps=1.0 q=46.7 size=       0KiB time=00:00:01.12 bitrate=   0.3kbits/s speed=0.0193x elapsed=0:00:57.96    \nframe=   59 fps=1.0 q=48.0 size=       0KiB time=00:00:01.14 bitrate=   0.3kbits/s speed=0.0195x elapsed=0:00:58.47    \nframe=   59 fps=1.0 q=48.0 size=       0KiB time=00:00:01.14 bitrate=   0.3kbits/s speed=0.0193x elapsed=0:00:58.99    \nframe=   60 fps=1.0 q=47.9 size=       0KiB time=00:00:01.16 bitrate=   0.3kbits/s speed=0.0195x elapsed=0:00:59.55    \nframe=   61 fps=1.0 q=43.0 size=       0KiB time=00:00:01.16 bitrate=   0.3kbits/s speed=0.0193x elapsed=0:01:00.08    \nframe=   61 fps=1.0 q=43.0 size=       0KiB time=00:00:01.18 bitrate=   0.3kbits/s speed=0.0195x elapsed=0:01:00.64    \nframe=   61 fps=1.0 q=43.0 size=       0KiB time=00:00:01.18 bitrate=   0.3kbits/s speed=0.0193x elapsed=0:01:01.19    \nframe=   63 fps=1.0 q=46.8 size=       0KiB time=00:00:01.22 bitrate=   0.3kbits/s speed=0.0198x elapsed=0:01:01.72    \nframe=   63 fps=1.0 q=46.8 size=       0KiB time=00:00:01.22 bitrate=   0.3kbits/s speed=0.0196x elapsed=0:01:02.23    \nframe=   64 fps=1.0 q=46.6 size=       0KiB time=00:00:01.24 bitrate=   0.3kbits/s speed=0.0198x elapsed=0:01:02.76    \nframe=   65 fps=1.0 q=46.9 size=       0KiB time=00:00:01.26 bitrate=   0.3kbits/s speed=0.0199x elapsed=0:01:03.28    \nframe=   65 fps=1.0 q=46.9 size=       0KiB time=00:00:01.26 bitrate=   0.3kbits/s speed=0.0197x elapsed=0:01:03.80    \nframe=   65 fps=1.0 q=46.9 size=       0KiB time=00:00:01.26 bitrate=   0.3kbits/s speed=0.0196x elapsed=0:01:04.32    \nframe=   66 fps=1.0 q=42.9 size=       0KiB time=00:00:01.28 bitrate=   0.3kbits/s speed=0.0197x elapsed=0:01:04.85    \nframe=   67 fps=1.0 q=45.7 size=       0KiB time=00:00:01.30 bitrate=   0.3kbits/s speed=0.0199x elapsed=0:01:05.42    \nframe=   67 fps=1.0 q=45.7 size=       0KiB time=00:00:01.30 bitrate=   0.3kbits/s speed=0.0197x elapsed=0:01:05.94    \nframe=   68 fps=1.0 q=47.0 size=       0KiB time=00:00:01.32 bitrate=   0.3kbits/s speed=0.0199x elapsed=0:01:06.47    \nframe=   68 fps=1.0 q=47.0 size=       0KiB time=00:00:01.32 bitrate=   0.3kbits/s speed=0.0197x elapsed=0:01:07.01    \nframe=   68 fps=1.0 q=47.0 size=       0KiB time=00:00:01.32 bitrate=   0.3kbits/s speed=0.0195x elapsed=0:01:07.55    \nframe=   69 fps=1.0 q=46.8 size=       0KiB time=00:00:01.34 bitrate=   0.3kbits/s speed=0.0197x elapsed=0:01:08.07    \nframe=   69 fps=1.0 q=46.8 size=       0KiB time=00:00:01.34 bitrate=   0.3kbits/s speed=0.0195x elapsed=0:01:08.60    \nframe=   70 fps=1.0 q=42.0 size=       0KiB time=00:00:01.36 bitrate=   0.3kbits/s speed=0.0197x elapsed=0:01:09.14    \nframe=   70 fps=1.0 q=42.0 size=       0KiB time=00:00:01.36 bitrate=   0.3kbits/s speed=0.0195x elapsed=0:01:09.67    \nframe=   70 fps=1.0 q=42.0 size=       0KiB time=00:00:01.36 bitrate=   0.3kbits/s speed=0.0194x elapsed=0:01:10.20    \nframe=   71 fps=1.0 q=45.1 size=       0KiB time=00:00:01.38 bitrate=   0.3kbits/s speed=0.0195x elapsed=0:01:10.73    \nframe=   72 fps=1.0 q=46.7 size=       0KiB time=00:00:01.40 bitrate=   0.3kbits/s speed=0.0196x elapsed=0:01:11.26    \nframe=   72 fps=1.0 q=46.7 size=       0KiB time=00:00:01.40 bitrate=   0.3kbits/s speed=0.0195x elapsed=0:01:11.79    \nframe=   73 fps=1.0 q=47.6 size=       0KiB time=00:00:01.42 bitrate=   0.2kbits/s speed=0.0196x elapsed=0:01:12.33    \nframe=   73 fps=1.0 q=47.6 size=       0KiB time=00:00:01.42 bitrate=   0.2kbits/s speed=0.0195x elapsed=0:01:12.85    \nframe=   74 fps=1.0 q=42.7 size=       0KiB time=00:00:01.44 bitrate=   0.2kbits/s speed=0.0196x elapsed=0:01:13.36    \nframe=   75 fps=1.0 q=45.7 size=       0KiB time=00:00:01.46 bitrate=   0.2kbits/s speed=0.0198x elapsed=0:01:13.88    \nframe=   75 fps=1.0 q=45.7 size=       0KiB time=00:00:01.46 bitrate=   0.2kbits/s speed=0.0196x elapsed=0:01:14.43    \nframe=   76 fps=1.0 q=47.7 size=       0KiB time=00:00:01.48 bitrate=   0.2kbits/s speed=0.0197x elapsed=0:01:14.96    \nframe=   76 fps=1.0 q=47.7 size=       0KiB time=00:00:01.48 bitrate=   0.2kbits/s speed=0.0196x elapsed=0:01:15.51    \nframe=   77 fps=1.0 q=46.7 size=       0KiB time=00:00:01.50 bitrate=   0.2kbits/s speed=0.0197x elapsed=0:01:16.04    \nframe=   79 fps=1.0 q=45.8 size=       0KiB time=00:00:01.54 bitrate=   0.2kbits/s speed=0.0201x elapsed=0:01:16.56    \nframe=   79 fps=1.0 q=45.8 size=       0KiB time=00:00:01.54 bitrate=   0.2kbits/s speed=0.02x elapsed=0:01:17.08    \nframe=   79 fps=1.0 q=45.8 size=       0KiB time=00:00:01.54 bitrate=   0.2kbits/s speed=0.0198x elapsed=0:01:17.61    \nframe=   80 fps=1.0 q=46.7 size=       0KiB time=00:00:01.56 bitrate=   0.2kbits/s speed=0.02x elapsed=0:01:18.15    \nframe=   80 fps=1.0 q=46.7 size=       0KiB time=00:00:01.56 bitrate=   0.2kbits/s speed=0.0198x elapsed=0:01:18.73    \nframe=   80 fps=1.0 q=46.7 size=       0KiB time=00:00:01.56 bitrate=   0.2kbits/s speed=0.0197x elapsed=0:01:19.31    \nframe=   80 fps=1.0 q=46.7 size=       0KiB time=00:00:01.56 bitrate=   0.2kbits/s speed=0.0195x elapsed=0:01:19.87    \nframe=   80 fps=1.0 q=46.7 size=       0KiB time=00:00:01.56 bitrate=   0.2kbits/s speed=0.0194x elapsed=0:01:20.48    \nframe=   81 fps=1.0 q=46.8 size=       0KiB time=00:00:01.58 bitrate=   0.2kbits/s speed=0.0195x elapsed=0:01:21.00    \nframe=   82 fps=1.0 q=42.3 size=       0KiB time=00:00:01.60 bitrate=   0.2kbits/s speed=0.0196x elapsed=0:01:21.55    \nframe=   82 fps=1.0 q=42.3 size=       0KiB time=00:00:01.60 bitrate=   0.2kbits/s speed=0.0195x elapsed=0:01:22.14    \nframe=   83 fps=1.0 q=45.3 size=       0KiB time=00:00:01.62 bitrate=   0.2kbits/s speed=0.0196x elapsed=0:01:22.74    \nframe=   83 fps=1.0 q=45.3 size=       0KiB time=00:00:01.62 bitrate=   0.2kbits/s speed=0.0194x elapsed=0:01:23.29    \nframe=   83 fps=1.0 q=45.3 size=       0KiB time=00:00:01.62 bitrate=   0.2kbits/s speed=0.0193x elapsed=0:01:23.83    \nframe=   83 fps=1.0 q=45.3 size=       0KiB time=00:00:01.62 bitrate=   0.2kbits/s speed=0.0192x elapsed=0:01:24.40    \nframe=   84 fps=1.0 q=47.7 size=       0KiB time=00:00:01.64 bitrate=   0.2kbits/s speed=0.0193x elapsed=0:01:24.97    \nframe=   84 fps=1.0 q=47.7 size=       0KiB time=00:00:01.64 bitrate=   0.2kbits/s speed=0.0192x elapsed=0:01:25.51    \nframe=   85 fps=1.0 q=46.8 size=       0KiB time=00:00:01.66 bitrate=   0.2kbits/s speed=0.0193x elapsed=0:01:26.02    \nframe=   87 fps=1.0 q=45.8 size=       0KiB time=00:00:01.70 bitrate=   0.2kbits/s speed=0.0196x elapsed=0:01:26.54    \nframe=   87 fps=1.0 q=45.8 size=       0KiB time=00:00:01.70 bitrate=   0.2kbits/s speed=0.0195x elapsed=0:01:27.06    \nframe=   88 fps=1.0 q=47.5 size=       0KiB time=00:00:01.72 bitrate=   0.2kbits/s speed=0.0196x elapsed=0:01:27.59    \nframe=   89 fps=1.0 q=47.4 size=       0KiB time=00:00:01.74 bitrate=   0.2kbits/s speed=0.0197x elapsed=0:01:28.11    \nframe=   89 fps=1.0 q=47.4 size=       0KiB time=00:00:01.74 bitrate=   0.2kbits/s speed=0.0196x elapsed=0:01:28.63    \nframe=   91 fps=1.0 q=45.3 size=       0KiB time=00:00:01.78 bitrate=   0.2kbits/s speed=0.02x elapsed=0:01:29.14    \nframe=   92 fps=1.0 q=47.6 size=       0KiB time=00:00:01.80 bitrate=   0.2kbits/s speed=0.0201x elapsed=0:01:29.66    \nframe=   92 fps=1.0 q=47.6 size=       0KiB time=00:00:01.80 bitrate=   0.2kbits/s speed=0.02x elapsed=0:01:30.18    \nframe=   93 fps=1.0 q=46.8 size=       0KiB time=00:00:01.82 bitrate=   0.2kbits/s speed=0.0201x elapsed=0:01:30.69    \nframe=   94 fps=1.0 q=41.9 size=       0KiB time=00:00:01.84 bitrate=   0.2kbits/s speed=0.0202x elapsed=0:01:31.22    \nframe=   95 fps=1.0 q=45.7 size=       0KiB time=00:00:01.86 bitrate=   0.2kbits/s speed=0.0203x elapsed=0:01:31.74    \nframe=   96 fps=1.0 q=47.5 size=       0KiB time=00:00:01.88 bitrate=   0.2kbits/s speed=0.0204x elapsed=0:01:32.26    \nframe=   97 fps=1.0 q=47.6 size=       0KiB time=00:00:01.90 bitrate=   0.2kbits/s speed=0.0205x elapsed=0:01:32.77    \nframe=   99 fps=1.1 q=45.7 size=       0KiB time=00:00:01.94 bitrate=   0.2kbits/s speed=0.0208x elapsed=0:01:33.28    \nframe=  101 fps=1.1 q=46.8 size=       0KiB time=00:00:01.98 bitrate=   0.2kbits/s speed=0.0211x elapsed=0:01:33.80    \nframe=  102 fps=1.1 q=41.6 size=       0KiB time=00:00:02.00 bitrate=   0.2kbits/s speed=0.0212x elapsed=0:01:34.32    \nframe=  102 fps=1.1 q=41.6 size=       0KiB time=00:00:02.00 bitrate=   0.2kbits/s speed=0.0211x elapsed=0:01:34.87    \nframe=  103 fps=1.1 q=45.5 size=       0KiB time=00:00:02.02 bitrate=   0.2kbits/s speed=0.0212x elapsed=0:01:35.40    \nframe=  104 fps=1.1 q=46.8 size=       0KiB time=00:00:02.04 bitrate=   0.2kbits/s speed=0.0213x elapsed=0:01:35.95    \nframe=  105 fps=1.1 q=46.8 size=       0KiB time=00:00:02.06 bitrate=   0.2kbits/s speed=0.0214x elapsed=0:01:36.47    \nframe=  106 fps=1.1 q=47.6 size=       0KiB time=00:00:02.08 bitrate=   0.2kbits/s speed=0.0214x elapsed=0:01:36.98    \nframe=  107 fps=1.1 q=42.7 size=       0KiB time=00:00:02.10 bitrate=   0.2kbits/s speed=0.0215x elapsed=0:01:37.50    \nframe=  108 fps=1.1 q=43.8 size=       0KiB time=00:00:02.12 bitrate=   0.2kbits/s speed=0.0216x elapsed=0:01:38.01    \nframe=  109 fps=1.1 q=47.5 size=     256KiB time=00:00:02.14 bitrate= 980.1kbits/s speed=0.0217x elapsed=0:01:38.53    \nframe=  111 fps=1.1 q=47.9 size=     256KiB time=00:00:02.18 bitrate= 962.2kbits/s speed=0.022x elapsed=0:01:39.05    \nframe=  112 fps=1.1 q=42.2 size=     256KiB time=00:00:02.20 bitrate= 953.4kbits/s speed=0.0221x elapsed=0:01:39.57    \nframe=  112 fps=1.1 q=42.2 size=     256KiB time=00:00:02.20 bitrate= 953.4kbits/s speed=0.022x elapsed=0:01:40.08    \nframe=  113 fps=1.1 q=45.9 size=     256KiB time=00:00:02.22 bitrate= 944.8kbits/s speed=0.0221x elapsed=0:01:40.59    \nframe=  115 fps=1.1 q=48.0 size=     256KiB time=00:00:02.26 bitrate= 928.1kbits/s speed=0.0224x elapsed=0:01:41.11    \nframe=  115 fps=1.1 q=48.0 size=     256KiB time=00:00:02.26 bitrate= 928.1kbits/s speed=0.0222x elapsed=0:01:41.63    \nframe=  116 fps=1.1 q=42.2 size=     256KiB time=00:00:02.28 bitrate= 920.0kbits/s speed=0.0223x elapsed=0:01:42.16    \nframe=  117 fps=1.1 q=45.1 size=     256KiB time=00:00:02.30 bitrate= 912.0kbits/s speed=0.0224x elapsed=0:01:42.67    \nframe=  119 fps=1.2 q=46.8 size=     256KiB time=00:00:02.34 bitrate= 896.4kbits/s speed=0.0227x elapsed=0:01:43.19    \nframe=  120 fps=1.2 q=46.9 size=     256KiB time=00:00:02.36 bitrate= 888.8kbits/s speed=0.0228x elapsed=0:01:43.70    \nframe=  121 fps=1.2 q=41.5 size=     256KiB time=00:00:02.38 bitrate= 881.3kbits/s speed=0.0228x elapsed=0:01:44.23    \nframe=  122 fps=1.2 q=45.0 size=     256KiB time=00:00:02.40 bitrate= 874.0kbits/s speed=0.0229x elapsed=0:01:44.73    \nframe=  123 fps=1.2 q=47.9 size=     256KiB time=00:00:02.42 bitrate= 866.7kbits/s speed=0.023x elapsed=0:01:45.26    \nframe=  124 fps=1.2 q=47.0 size=     256KiB time=00:00:02.44 bitrate= 859.6kbits/s speed=0.0231x elapsed=0:01:45.77    \nframe=  124 fps=1.2 q=47.0 size=     256KiB time=00:00:02.44 bitrate= 859.6kbits/s speed=0.023x elapsed=0:01:46.28    \nframe=  125 fps=1.2 q=41.6 size=     256KiB time=00:00:02.46 bitrate= 852.6kbits/s speed=0.023x elapsed=0:01:46.80    \nframe=  126 fps=1.2 q=45.0 size=     256KiB time=00:00:02.48 bitrate= 845.8kbits/s speed=0.0231x elapsed=0:01:47.33    \nframe=  128 fps=1.2 q=46.7 size=     256KiB time=00:00:02.52 bitrate= 832.3kbits/s speed=0.0234x elapsed=0:01:47.87    \nframe=  128 fps=1.2 q=46.7 size=     256KiB time=00:00:02.52 bitrate= 832.3kbits/s speed=0.0232x elapsed=0:01:48.41    \nframe=  129 fps=1.2 q=41.9 size=     256KiB time=00:00:02.54 bitrate= 825.8kbits/s speed=0.0233x elapsed=0:01:48.94    \nframe=  130 fps=1.2 q=44.9 size=     256KiB time=00:00:02.56 bitrate= 819.3kbits/s speed=0.0234x elapsed=0:01:49.48    \nframe=  131 fps=1.2 q=46.7 size=     256KiB time=00:00:02.58 bitrate= 813.0kbits/s speed=0.0235x elapsed=0:01:50.01    \nframe=  132 fps=1.2 q=46.8 size=     256KiB time=00:00:02.60 bitrate= 806.7kbits/s speed=0.0235x elapsed=0:01:50.52    \nframe=  133 fps=1.2 q=41.8 size=     256KiB time=00:00:02.62 bitrate= 800.6kbits/s speed=0.0236x elapsed=0:01:51.04    \nframe=  134 fps=1.2 q=44.7 size=     256KiB time=00:00:02.64 bitrate= 794.5kbits/s speed=0.0237x elapsed=0:01:51.55    \nframe=  136 fps=1.2 q=46.7 size=     256KiB time=00:00:02.68 bitrate= 782.7kbits/s speed=0.0239x elapsed=0:01:52.06    \nframe=  136 fps=1.2 q=46.7 size=     256KiB time=00:00:02.68 bitrate= 782.7kbits/s speed=0.0238x elapsed=0:01:52.58    \nframe=  137 fps=1.2 q=41.2 size=     256KiB time=00:00:02.70 bitrate= 776.9kbits/s speed=0.0239x elapsed=0:01:53.09    \nframe=  138 fps=1.2 q=45.4 size=     256KiB time=00:00:02.72 bitrate= 771.1kbits/s speed=0.0239x elapsed=0:01:53.62    \nframe=  138 fps=1.2 q=45.4 size=     256KiB time=00:00:02.72 bitrate= 771.1kbits/s speed=0.0238x elapsed=0:01:54.13    \nframe=  139 fps=1.2 q=46.8 size=     256KiB time=00:00:02.74 bitrate= 765.5kbits/s speed=0.0239x elapsed=0:01:54.64    \nframe=  140 fps=1.2 q=46.6 size=     256KiB time=00:00:02.76 bitrate= 760.0kbits/s speed=0.024x elapsed=0:01:55.15    \nframe=  141 fps=1.2 q=46.5 size=     256KiB time=00:00:02.78 bitrate= 754.5kbits/s speed=0.024x elapsed=0:01:55.67    \nframe=  142 fps=1.2 q=42.0 size=     256KiB time=00:00:02.80 bitrate= 749.1kbits/s speed=0.0241x elapsed=0:01:56.20    \nframe=  144 fps=1.2 q=46.8 size=     256KiB time=00:00:02.84 bitrate= 738.6kbits/s speed=0.0243x elapsed=0:01:56.71    \nframe=  145 fps=1.2 q=46.6 size=     256KiB time=00:00:02.86 bitrate= 733.4kbits/s speed=0.0244x elapsed=0:01:57.23    \nframe=  146 fps=1.2 q=46.8 size=     256KiB time=00:00:02.88 bitrate= 728.3kbits/s speed=0.0245x elapsed=0:01:57.73    \nframe=  147 fps=1.2 q=42.2 size=     256KiB time=00:00:02.90 bitrate= 723.3kbits/s speed=0.0245x elapsed=0:01:58.26    \nframe=  148 fps=1.2 q=45.3 size=     256KiB time=00:00:02.92 bitrate= 718.3kbits/s speed=0.0246x elapsed=0:01:58.77    \nframe=  149 fps=1.2 q=47.6 size=     256KiB time=00:00:02.94 bitrate= 713.4kbits/s speed=0.0246x elapsed=0:01:59.30    \nframe=  151 fps=1.3 q=46.7 size=     256KiB time=00:00:02.98 bitrate= 703.9kbits/s speed=0.0249x elapsed=0:01:59.81    \nframe=  151 fps=1.3 q=46.7 size=     256KiB time=00:00:02.98 bitrate= 703.9kbits/s speed=0.0248x elapsed=0:02:00.32    \nframe=  153 fps=1.3 q=44.8 size=     256KiB time=00:00:03.02 bitrate= 694.5kbits/s speed=0.025x elapsed=0:02:00.85    \nframe=  153 fps=1.3 q=44.8 size=     256KiB time=00:00:03.02 bitrate= 694.5kbits/s speed=0.0249x elapsed=0:02:01.36    \nframe=  154 fps=1.3 q=46.5 size=     256KiB time=00:00:03.04 bitrate= 690.0kbits/s speed=0.0249x elapsed=0:02:01.88    \nframe=  155 fps=1.3 q=46.6 size=     256KiB time=00:00:03.06 bitrate= 685.5kbits/s speed=0.025x elapsed=0:02:02.42    \nframe=  157 fps=1.3 q=44.1 size=     256KiB time=00:00:03.08 bitrate= 681.0kbits/s speed=0.0251x elapsed=0:02:02.94    \nframe=  157 fps=1.3 q=44.1 size=     256KiB time=00:00:03.10 bitrate= 676.6kbits/s speed=0.0251x elapsed=0:02:03.47    \nframe=  159 fps=1.3 q=46.2 size=     256KiB time=00:00:03.14 bitrate= 668.0kbits/s speed=0.0253x elapsed=0:02:03.98    \nframe=  160 fps=1.3 q=46.6 size=     256KiB time=00:00:03.16 bitrate= 663.8kbits/s speed=0.0254x elapsed=0:02:04.50    \nframe=  161 fps=1.3 q=41.7 size=     256KiB time=00:00:03.18 bitrate= 659.6kbits/s speed=0.0254x elapsed=0:02:05.03    \nframe=  163 fps=1.3 q=46.8 size=     256KiB time=00:00:03.22 bitrate= 651.4kbits/s speed=0.0256x elapsed=0:02:05.54    \nframe=  165 fps=1.3 q=46.8 size=     256KiB time=00:00:03.24 bitrate= 647.4kbits/s speed=0.0257x elapsed=0:02:06.07    \nframe=  165 fps=1.3 q=46.8 size=     256KiB time=00:00:03.26 bitrate= 643.4kbits/s speed=0.0257x elapsed=0:02:06.61    \nframe=  166 fps=1.3 q=41.9 size=     256KiB time=00:00:03.28 bitrate= 639.5kbits/s speed=0.0258x elapsed=0:02:07.12    \nframe=  167 fps=1.3 q=45.6 size=     256KiB time=00:00:03.30 bitrate= 635.6kbits/s speed=0.0259x elapsed=0:02:07.64    \nframe=  168 fps=1.3 q=46.7 size=     256KiB time=00:00:03.32 bitrate= 631.8kbits/s speed=0.0259x elapsed=0:02:08.16    \nframe=  169 fps=1.3 q=46.7 size=     256KiB time=00:00:03.34 bitrate= 628.0kbits/s speed=0.026x elapsed=0:02:08.67    \nframe=  171 fps=1.3 q=42.1 size=     256KiB time=00:00:03.38 bitrate= 620.6kbits/s speed=0.0262x elapsed=0:02:09.21    \nframe=  172 fps=1.3 q=44.1 size=     256KiB time=00:00:03.40 bitrate= 616.9kbits/s speed=0.0262x elapsed=0:02:09.74    \nframe=  173 fps=1.3 q=46.9 size=     256KiB time=00:00:03.42 bitrate= 613.3kbits/s speed=0.0263x elapsed=0:02:10.26    \nframe=  175 fps=1.3 q=45.8 size=     256KiB time=00:00:03.46 bitrate= 606.2kbits/s speed=0.0265x elapsed=0:02:10.77    \nframe=  175 fps=1.3 q=45.8 size=     256KiB time=00:00:03.46 bitrate= 606.2kbits/s speed=0.0264x elapsed=0:02:11.29    \nframe=  176 fps=1.3 q=41.2 size=     256KiB time=00:00:03.48 bitrate= 602.7kbits/s speed=0.0264x elapsed=0:02:11.81    \nframe=  178 fps=1.3 q=45.7 size=     256KiB time=00:00:03.52 bitrate= 595.9kbits/s speed=0.0266x elapsed=0:02:12.33    \nframe=  179 fps=1.3 q=45.7 size=     256KiB time=00:00:03.54 bitrate= 592.5kbits/s speed=0.0266x elapsed=0:02:12.86    \nframe=  180 fps=1.3 q=45.7 size=     256KiB time=00:00:03.56 bitrate= 589.2kbits/s speed=0.0267x elapsed=0:02:13.38    \nframe=  181 fps=1.4 q=41.6 size=     256KiB time=00:00:03.58 bitrate= 585.9kbits/s speed=0.0267x elapsed=0:02:13.89    \nframe=  182 fps=1.4 q=44.5 size=     256KiB time=00:00:03.60 bitrate= 582.6kbits/s speed=0.0268x elapsed=0:02:14.41    \nframe=  183 fps=1.4 q=45.8 size=     256KiB time=00:00:03.62 bitrate= 579.4kbits/s speed=0.0268x elapsed=0:02:14.92    \nframe=  184 fps=1.4 q=45.5 size=     256KiB time=00:00:03.64 bitrate= 576.2kbits/s speed=0.0269x elapsed=0:02:15.44    \nframe=  186 fps=1.4 q=41.8 size=     256KiB time=00:00:03.68 bitrate= 570.0kbits/s speed=0.0271x elapsed=0:02:15.96    \nframe=  186 fps=1.4 q=41.8 size=     256KiB time=00:00:03.68 bitrate= 570.0kbits/s speed=0.027x elapsed=0:02:16.49    \nframe=  187 fps=1.4 q=44.5 size=     256KiB time=00:00:03.70 bitrate= 566.9kbits/s speed=0.027x elapsed=0:02:17.02    \nframe=  189 fps=1.4 q=46.6 size=     256KiB time=00:00:03.74 bitrate= 560.8kbits/s speed=0.0272x elapsed=0:02:17.53    \nframe=  189 fps=1.4 q=46.6 size=     256KiB time=00:00:03.74 bitrate= 560.8kbits/s speed=0.0271x elapsed=0:02:18.05    \nframe=  190 fps=1.4 q=41.8 size=     256KiB time=00:00:03.76 bitrate= 557.8kbits/s speed=0.0271x elapsed=0:02:18.56    \nframe=  191 fps=1.4 q=44.0 size=     256KiB time=00:00:03.78 bitrate= 554.9kbits/s speed=0.0272x elapsed=0:02:19.08    \nframe=  192 fps=1.4 q=45.8 size=     256KiB time=00:00:03.80 bitrate= 552.0kbits/s speed=0.0272x elapsed=0:02:19.60    \nframe=  193 fps=1.4 q=45.6 size=     256KiB time=00:00:03.82 bitrate= 549.1kbits/s speed=0.0273x elapsed=0:02:20.12    \nframe=  195 fps=1.4 q=41.5 size=     256KiB time=00:00:03.86 bitrate= 543.4kbits/s speed=0.0274x elapsed=0:02:20.67    \nframe=  195 fps=1.4 q=41.5 size=     256KiB time=00:00:03.86 bitrate= 543.4kbits/s speed=0.0273x elapsed=0:02:21.19    \nframe=  196 fps=1.4 q=42.4 size=     256KiB time=00:00:03.88 bitrate= 540.6kbits/s speed=0.0274x elapsed=0:02:21.71    \nframe=  197 fps=1.4 q=46.5 size=     256KiB time=00:00:03.90 bitrate= 537.8kbits/s speed=0.0274x elapsed=0:02:22.23    \nframe=  198 fps=1.4 q=46.6 size=     256KiB time=00:00:03.92 bitrate= 535.1kbits/s speed=0.0275x elapsed=0:02:22.74    \nframe=  199 fps=1.4 q=46.8 size=     256KiB time=00:00:03.94 bitrate= 532.4kbits/s speed=0.0275x elapsed=0:02:23.25    \nframe=  201 fps=1.4 q=42.7 size=     256KiB time=00:00:03.98 bitrate= 527.0kbits/s speed=0.0277x elapsed=0:02:23.78    \nframe=  202 fps=1.4 q=46.7 size=     256KiB time=00:00:04.00 bitrate= 524.4kbits/s speed=0.0277x elapsed=0:02:24.28    \nframe=  203 fps=1.4 q=46.6 size=     256KiB time=00:00:04.02 bitrate= 521.8kbits/s speed=0.0278x elapsed=0:02:24.80    \nframe=  205 fps=1.4 q=41.7 size=     256KiB time=00:00:04.06 bitrate= 516.6kbits/s speed=0.0279x elapsed=0:02:25.32    \nframe=  206 fps=1.4 q=45.5 size=     256KiB time=00:00:04.08 bitrate= 514.1kbits/s speed=0.028x elapsed=0:02:25.84    \nframe=  206 fps=1.4 q=45.5 size=     256KiB time=00:00:04.08 bitrate= 514.1kbits/s speed=0.0279x elapsed=0:02:26.37    \nframe=  208 fps=1.4 q=46.6 size=     256KiB time=00:00:04.12 bitrate= 509.1kbits/s speed=0.0281x elapsed=0:02:26.87    \nframe=  209 fps=1.4 q=46.5 size=     256KiB time=00:00:04.14 bitrate= 506.6kbits/s speed=0.0281x elapsed=0:02:27.40    \nframe=  210 fps=1.4 q=41.9 size=     256KiB time=00:00:04.16 bitrate= 504.2kbits/s speed=0.0281x elapsed=0:02:27.92    \nframe=  211 fps=1.4 q=45.2 size=     256KiB time=00:00:04.18 bitrate= 501.8kbits/s speed=0.0282x elapsed=0:02:28.44    \nframe=  211 fps=1.4 q=45.2 size=     256KiB time=00:00:04.18 bitrate= 501.8kbits/s speed=0.0281x elapsed=0:02:28.96    \nframe=  213 fps=1.4 q=46.7 size=     256KiB time=00:00:04.22 bitrate= 497.0kbits/s speed=0.0282x elapsed=0:02:29.47    \nframe=  213 fps=1.4 q=46.7 size=     256KiB time=00:00:04.22 bitrate= 497.0kbits/s speed=0.0281x elapsed=0:02:30.00    \nframe=  214 fps=1.4 q=41.8 size=     256KiB time=00:00:04.24 bitrate= 494.7kbits/s speed=0.0282x elapsed=0:02:30.53    \nframe=  215 fps=1.4 q=45.3 size=     512KiB time=00:00:04.26 bitrate= 984.7kbits/s speed=0.0282x elapsed=0:02:31.05    \nframe=  216 fps=1.4 q=47.7 size=     512KiB time=00:00:04.28 bitrate= 980.1kbits/s speed=0.0282x elapsed=0:02:31.56    \nframe=  217 fps=1.4 q=46.8 size=     512KiB time=00:00:04.30 bitrate= 975.5kbits/s speed=0.0283x elapsed=0:02:32.09    \nframe=  218 fps=1.4 q=41.6 size=     512KiB time=00:00:04.32 bitrate= 971.0kbits/s speed=0.0283x elapsed=0:02:32.61    \nframe=  219 fps=1.4 q=45.0 size=     512KiB time=00:00:04.34 bitrate= 966.5kbits/s speed=0.0283x elapsed=0:02:33.15    \nframe=  220 fps=1.4 q=46.9 size=     512KiB time=00:00:04.36 bitrate= 962.1kbits/s speed=0.0284x elapsed=0:02:33.67    \nframe=  221 fps=1.4 q=46.9 size=     512KiB time=00:00:04.38 bitrate= 957.7kbits/s speed=0.0284x elapsed=0:02:34.20    \nframe=  222 fps=1.4 q=41.4 size=     512KiB time=00:00:04.40 bitrate= 953.3kbits/s speed=0.0284x elapsed=0:02:34.72    \nframe=  223 fps=1.4 q=45.3 size=     512KiB time=00:00:04.42 bitrate= 949.0kbits/s speed=0.0285x elapsed=0:02:35.24    \nframe=  224 fps=1.4 q=47.9 size=     512KiB time=00:00:04.44 bitrate= 944.7kbits/s speed=0.0285x elapsed=0:02:35.76    \nframe=  226 fps=1.4 q=41.5 size=     512KiB time=00:00:04.48 bitrate= 936.3kbits/s speed=0.0287x elapsed=0:02:36.28    \nframe=  226 fps=1.4 q=41.5 size=     512KiB time=00:00:04.48 bitrate= 936.3kbits/s speed=0.0286x elapsed=0:02:36.80    \nframe=  227 fps=1.4 q=46.1 size=     512KiB time=00:00:04.50 bitrate= 932.1kbits/s speed=0.0286x elapsed=0:02:37.32    \nframe=  228 fps=1.4 q=46.9 size=     512KiB time=00:00:04.52 bitrate= 928.0kbits/s speed=0.0286x elapsed=0:02:37.82    \nframe=  230 fps=1.5 q=45.9 size=     512KiB time=00:00:04.56 bitrate= 919.9kbits/s speed=0.0288x elapsed=0:02:38.34    \nframe=  231 fps=1.5 q=41.5 size=     512KiB time=00:00:04.58 bitrate= 915.9kbits/s speed=0.0288x elapsed=0:02:38.87    \nframe=  232 fps=1.5 q=46.7 size=     512KiB time=00:00:04.60 bitrate= 911.9kbits/s speed=0.0289x elapsed=0:02:39.38    \nframe=  234 fps=1.5 q=47.8 size=     512KiB time=00:00:04.64 bitrate= 904.0kbits/s speed=0.029x elapsed=0:02:39.91    \nframe=  234 fps=1.5 q=47.8 size=     512KiB time=00:00:04.64 bitrate= 904.0kbits/s speed=0.0289x elapsed=0:02:40.42    \nframe=  235 fps=1.5 q=47.8 size=     512KiB time=00:00:04.66 bitrate= 900.1kbits/s speed=0.029x elapsed=0:02:40.94    \nframe=  236 fps=1.5 q=41.4 size=     512KiB time=00:00:04.68 bitrate= 896.3kbits/s speed=0.029x elapsed=0:02:41.45    \nframe=  237 fps=1.5 q=45.4 size=     512KiB time=00:00:04.70 bitrate= 892.5kbits/s speed=0.029x elapsed=0:02:41.97    \nframe=  238 fps=1.5 q=47.8 size=     512KiB time=00:00:04.72 bitrate= 888.7kbits/s speed=0.029x elapsed=0:02:42.49    \nframe=  239 fps=1.5 q=47.8 size=     512KiB time=00:00:04.74 bitrate= 884.9kbits/s speed=0.0291x elapsed=0:02:43.00    \nframe=  240 fps=1.5 q=41.6 size=     512KiB time=00:00:04.76 bitrate= 881.2kbits/s speed=0.0291x elapsed=0:02:43.51    \nframe=  241 fps=1.5 q=45.1 size=     512KiB time=00:00:04.78 bitrate= 877.5kbits/s speed=0.0291x elapsed=0:02:44.04    \nframe=  242 fps=1.5 q=47.7 size=     512KiB time=00:00:04.80 bitrate= 873.9kbits/s speed=0.0292x elapsed=0:02:44.56    \nframe=  243 fps=1.5 q=47.6 size=     512KiB time=00:00:04.82 bitrate= 870.3kbits/s speed=0.0292x elapsed=0:02:45.09    \nframe=  244 fps=1.5 q=47.7 size=     512KiB time=00:00:04.84 bitrate= 866.7kbits/s speed=0.0292x elapsed=0:02:45.62    \nframe=  245 fps=1.5 q=41.4 size=     512KiB time=00:00:04.86 bitrate= 863.1kbits/s speed=0.0293x elapsed=0:02:46.13    \nframe=  246 fps=1.5 q=43.4 size=     512KiB time=00:00:04.88 bitrate= 859.6kbits/s speed=0.0293x elapsed=0:02:46.65    \nframe=  246 fps=1.5 q=43.4 size=     512KiB time=00:00:04.88 bitrate= 859.6kbits/s speed=0.0292x elapsed=0:02:47.15    \nframe=  247 fps=1.5 q=47.6 size=     512KiB time=00:00:04.90 bitrate= 856.1kbits/s speed=0.0292x elapsed=0:02:47.68    \nframe=  247 fps=1.5 q=47.6 size=     512KiB time=00:00:04.90 bitrate= 856.1kbits/s speed=0.0291x elapsed=0:02:48.22    \nframe=  248 fps=1.5 q=47.6 size=     512KiB time=00:00:04.92 bitrate= 852.6kbits/s speed=0.0292x elapsed=0:02:48.74    \nframe=  249 fps=1.5 q=47.8 size=     512KiB time=00:00:04.94 bitrate= 849.1kbits/s speed=0.0292x elapsed=0:02:49.25    \nframe=  250 fps=1.5 q=39.3 size=     512KiB time=00:00:04.96 bitrate= 845.7kbits/s speed=0.0292x elapsed=0:02:49.76    \nframe=  251 fps=1.5 q=47.6 size=     512KiB time=00:00:04.98 bitrate= 842.3kbits/s speed=0.0292x elapsed=0:02:50.28    \nframe=  252 fps=1.5 q=42.3 size=     512KiB time=00:00:05.00 bitrate= 838.9kbits/s speed=0.0293x elapsed=0:02:50.82    \nframe=  253 fps=1.5 q=45.7 size=     512KiB time=00:00:05.02 bitrate= 835.6kbits/s speed=0.0293x elapsed=0:02:51.35    \nframe=  253 fps=1.5 q=45.7 size=     512KiB time=00:00:05.02 bitrate= 835.6kbits/s speed=0.0292x elapsed=0:02:51.86    \nframe=  255 fps=1.5 q=47.7 size=     512KiB time=00:00:05.06 bitrate= 829.0kbits/s speed=0.0294x elapsed=0:02:52.39    \nframe=  256 fps=1.5 q=42.0 size=     512KiB time=00:00:05.08 bitrate= 825.7kbits/s speed=0.0294x elapsed=0:02:52.91    \nframe=  257 fps=1.5 q=46.1 size=     512KiB time=00:00:05.10 bitrate= 822.5kbits/s speed=0.0294x elapsed=0:02:53.42    \nframe=  258 fps=1.5 q=47.8 size=     512KiB time=00:00:05.12 bitrate= 819.3kbits/s speed=0.0294x elapsed=0:02:53.94    \nframe=  260 fps=1.5 q=42.0 size=     512KiB time=00:00:05.16 bitrate= 812.9kbits/s speed=0.0296x elapsed=0:02:54.45    \nframe=  261 fps=1.5 q=46.0 size=     512KiB time=00:00:05.18 bitrate= 809.8kbits/s speed=0.0296x elapsed=0:02:54.97    \nframe=  262 fps=1.5 q=47.7 size=     512KiB time=00:00:05.20 bitrate= 806.7kbits/s speed=0.0296x elapsed=0:02:55.49    \nframe=  263 fps=1.5 q=47.8 size=     512KiB time=00:00:05.22 bitrate= 803.6kbits/s speed=0.0297x elapsed=0:02:56.01    \nframe=  263 fps=1.5 q=47.8 size=     512KiB time=00:00:05.22 bitrate= 803.6kbits/s speed=0.0296x elapsed=0:02:56.52    \nframe=  265 fps=1.5 q=46.0 size=     512KiB time=00:00:05.26 bitrate= 797.5kbits/s speed=0.0297x elapsed=0:02:57.04    \nframe=  266 fps=1.5 q=47.8 size=     512KiB time=00:00:05.28 bitrate= 794.4kbits/s speed=0.0297x elapsed=0:02:57.56    \nframe=  267 fps=1.5 q=47.8 size=     512KiB time=00:00:05.30 bitrate= 791.4kbits/s speed=0.0298x elapsed=0:02:58.08    \nframe=  268 fps=1.5 q=42.0 size=     512KiB time=00:00:05.32 bitrate= 788.5kbits/s speed=0.0298x elapsed=0:02:58.60    \nframe=  269 fps=1.5 q=46.0 size=     512KiB time=00:00:05.34 bitrate= 785.5kbits/s speed=0.0298x elapsed=0:02:59.11    \nframe=  271 fps=1.5 q=47.8 size=     512KiB time=00:00:05.38 bitrate= 779.7kbits/s speed=0.03x elapsed=0:02:59.62    \nframe=  271 fps=1.5 q=47.8 size=     512KiB time=00:00:05.38 bitrate= 779.7kbits/s speed=0.0299x elapsed=0:03:00.14    \nframe=  272 fps=1.5 q=41.8 size=     512KiB time=00:00:05.40 bitrate= 776.8kbits/s speed=0.0299x elapsed=0:03:00.67    \nframe=  274 fps=1.5 q=47.9 size=     512KiB time=00:00:05.44 bitrate= 771.1kbits/s speed=0.03x elapsed=0:03:01.19    \nframe=  275 fps=1.5 q=47.9 size=     512KiB time=00:00:05.46 bitrate= 768.3kbits/s speed=0.03x elapsed=0:03:01.70    \nframe=  276 fps=1.5 q=47.9 size=     512KiB time=00:00:05.48 bitrate= 765.4kbits/s speed=0.0301x elapsed=0:03:02.22    \nframe=  278 fps=1.5 q=45.5 size=     512KiB time=00:00:05.52 bitrate= 759.9kbits/s speed=0.0302x elapsed=0:03:02.75    \nframe=  279 fps=1.5 q=47.9 size=     512KiB time=00:00:05.54 bitrate= 757.2kbits/s speed=0.0302x elapsed=0:03:03.29    \nframe=  280 fps=1.5 q=48.0 size=     512KiB time=00:00:05.56 bitrate= 754.4kbits/s speed=0.0302x elapsed=0:03:03.80    \nframe=  281 fps=1.5 q=42.0 size=     512KiB time=00:00:05.58 bitrate= 751.7kbits/s speed=0.0303x elapsed=0:03:04.32    \nframe=  283 fps=1.5 q=47.8 size=     512KiB time=00:00:05.62 bitrate= 746.4kbits/s speed=0.0304x elapsed=0:03:04.83    \nframe=  284 fps=1.5 q=48.0 size=     512KiB time=00:00:05.64 bitrate= 743.7kbits/s speed=0.0304x elapsed=0:03:05.34    \nframe=  285 fps=1.5 q=48.0 size=     512KiB time=00:00:05.66 bitrate= 741.1kbits/s speed=0.0305x elapsed=0:03:05.86    \nframe=  286 fps=1.5 q=42.1 size=     512KiB time=00:00:05.68 bitrate= 738.5kbits/s speed=0.0305x elapsed=0:03:06.38    \nframe=  287 fps=1.5 q=46.3 size=     512KiB time=00:00:05.70 bitrate= 735.9kbits/s speed=0.0305x elapsed=0:03:06.92    \nframe=  288 fps=1.5 q=47.9 size=     512KiB time=00:00:05.72 bitrate= 733.3kbits/s speed=0.0305x elapsed=0:03:07.44    \nframe=  289 fps=1.5 q=48.0 size=     512KiB time=00:00:05.74 bitrate= 730.8kbits/s speed=0.0305x elapsed=0:03:07.95    \nframe=  290 fps=1.5 q=42.1 size=     512KiB time=00:00:05.76 bitrate= 728.2kbits/s speed=0.0306x elapsed=0:03:08.47    \nframe=  290 fps=1.5 q=42.1 size=     512KiB time=00:00:05.76 bitrate= 728.2kbits/s speed=0.0305x elapsed=0:03:08.98    \nframe=  292 fps=1.5 q=47.9 size=     512KiB time=00:00:05.80 bitrate= 723.2kbits/s speed=0.0306x elapsed=0:03:09.51    \nframe=  292 fps=1.5 q=47.9 size=     512KiB time=00:00:05.80 bitrate= 723.2kbits/s speed=0.0305x elapsed=0:03:10.04    \nframe=  294 fps=1.5 q=41.8 size=     512KiB time=00:00:05.84 bitrate= 718.3kbits/s speed=0.0306x elapsed=0:03:10.54    \nframe=  294 fps=1.5 q=41.8 size=     512KiB time=00:00:05.84 bitrate= 718.3kbits/s speed=0.0306x elapsed=0:03:11.06    \nframe=  295 fps=1.5 q=45.2 size=     512KiB time=00:00:05.86 bitrate= 715.8kbits/s speed=0.0306x elapsed=0:03:11.58    \nframe=  296 fps=1.5 q=47.8 size=     512KiB time=00:00:05.88 bitrate= 713.4kbits/s speed=0.0306x elapsed=0:03:12.09    \nframe=  298 fps=1.5 q=47.8 size=     512KiB time=00:00:05.92 bitrate= 708.6kbits/s speed=0.0307x elapsed=0:03:12.61    \nframe=  299 fps=1.5 q=42.2 size=     512KiB time=00:00:05.94 bitrate= 706.2kbits/s speed=0.0308x elapsed=0:03:13.13    \nframe=  301 fps=1.6 q=47.8 size=     512KiB time=00:00:05.98 bitrate= 701.4kbits/s speed=0.0309x elapsed=0:03:13.65    \nframe=  302 fps=1.6 q=47.8 size=     512KiB time=00:00:06.00 bitrate= 699.1kbits/s speed=0.0309x elapsed=0:03:14.18    \nframe=  303 fps=1.6 q=42.2 size=     512KiB time=00:00:06.02 bitrate= 696.8kbits/s speed=0.0309x elapsed=0:03:14.70    \nframe=  304 fps=1.6 q=45.9 size=     512KiB time=00:00:06.04 bitrate= 694.5kbits/s speed=0.0309x elapsed=0:03:15.22    \nframe=  305 fps=1.6 q=47.8 size=     512KiB time=00:00:06.06 bitrate= 692.2kbits/s speed=0.031x elapsed=0:03:15.74    \nframe=  307 fps=1.6 q=47.8 size=     512KiB time=00:00:06.10 bitrate= 687.6kbits/s speed=0.0311x elapsed=0:03:16.25    \nframe=  307 fps=1.6 q=47.8 size=     512KiB time=00:00:06.10 bitrate= 687.6kbits/s speed=0.031x elapsed=0:03:16.77    \nframe=  308 fps=1.6 q=42.2 size=     512KiB time=00:00:06.12 bitrate= 685.4kbits/s speed=0.031x elapsed=0:03:17.29    \nframe=  309 fps=1.6 q=46.2 size=     512KiB time=00:00:06.14 bitrate= 683.2kbits/s speed=0.031x elapsed=0:03:17.80    \nframe=  311 fps=1.6 q=47.9 size=     512KiB time=00:00:06.18 bitrate= 678.7kbits/s speed=0.0312x elapsed=0:03:18.31    \nframe=  311 fps=1.6 q=47.9 size=     512KiB time=00:00:06.18 bitrate= 678.7kbits/s speed=0.0311x elapsed=0:03:18.84    \nframe=  312 fps=1.6 q=42.3 size=     512KiB time=00:00:06.20 bitrate= 676.6kbits/s speed=0.0311x elapsed=0:03:19.36    \nframe=  313 fps=1.6 q=45.6 size=     768KiB time=00:00:06.22 bitrate=1011.5kbits/s speed=0.0311x elapsed=0:03:19.87    \nframe=  314 fps=1.6 q=48.5 size=     768KiB time=00:00:06.24 bitrate=1008.3kbits/s speed=0.0311x elapsed=0:03:20.40    \nframe=  316 fps=1.6 q=48.4 size=     768KiB time=00:00:06.28 bitrate=1001.9kbits/s speed=0.0313x elapsed=0:03:20.93    \nframe=  317 fps=1.6 q=42.2 size=     768KiB time=00:00:06.30 bitrate= 998.7kbits/s speed=0.0313x elapsed=0:03:21.47    \nframe=  317 fps=1.6 q=42.2 size=     768KiB time=00:00:06.30 bitrate= 998.7kbits/s speed=0.0312x elapsed=0:03:21.99    \nframe=  318 fps=1.6 q=46.1 size=     768KiB time=00:00:06.32 bitrate= 995.5kbits/s speed=0.0312x elapsed=0:03:22.50    \nframe=  320 fps=1.6 q=48.7 size=     768KiB time=00:00:06.36 bitrate= 989.3kbits/s speed=0.0313x elapsed=0:03:23.02    \nframe=  321 fps=1.6 q=42.1 size=     768KiB time=00:00:06.38 bitrate= 986.2kbits/s speed=0.0313x elapsed=0:03:23.53    \nframe=  321 fps=1.6 q=42.1 size=     768KiB time=00:00:06.38 bitrate= 986.2kbits/s speed=0.0313x elapsed=0:03:24.07    \nframe=  323 fps=1.6 q=48.3 size=     768KiB time=00:00:06.42 bitrate= 980.0kbits/s speed=0.0314x elapsed=0:03:24.58    \nframe=  324 fps=1.6 q=48.6 size=     768KiB time=00:00:06.44 bitrate= 977.0kbits/s speed=0.0314x elapsed=0:03:25.09    \nframe=  325 fps=1.6 q=48.7 size=     768KiB time=00:00:06.46 bitrate= 974.0kbits/s speed=0.0314x elapsed=0:03:25.61    \nframe=  325 fps=1.6 q=48.7 size=     768KiB time=00:00:06.46 bitrate= 974.0kbits/s speed=0.0313x elapsed=0:03:26.13    \nframe=  326 fps=1.6 q=42.1 size=     768KiB time=00:00:06.48 bitrate= 971.0kbits/s speed=0.0314x elapsed=0:03:26.64    \nframe=  327 fps=1.6 q=43.9 size=     768KiB time=00:00:06.50 bitrate= 968.0kbits/s speed=0.0314x elapsed=0:03:27.16    \nframe=  329 fps=1.6 q=48.6 size=     768KiB time=00:00:06.54 bitrate= 962.1kbits/s speed=0.0315x elapsed=0:03:27.71    \nframe=  330 fps=1.6 q=48.8 size=     768KiB time=00:00:06.56 bitrate= 959.1kbits/s speed=0.0315x elapsed=0:03:28.22    \nframe=  331 fps=1.6 q=42.1 size=     768KiB time=00:00:06.58 bitrate= 956.2kbits/s speed=0.0315x elapsed=0:03:28.74    \nframe=  332 fps=1.6 q=46.0 size=     768KiB time=00:00:06.60 bitrate= 953.3kbits/s speed=0.0315x elapsed=0:03:29.25    \nframe=  334 fps=1.6 q=48.9 size=     768KiB time=00:00:06.64 bitrate= 947.6kbits/s speed=0.0317x elapsed=0:03:29.78    \nframe=  335 fps=1.6 q=42.3 size=     768KiB time=00:00:06.66 bitrate= 944.7kbits/s speed=0.0317x elapsed=0:03:30.31    \nframe=  335 fps=1.6 q=42.3 size=     768KiB time=00:00:06.66 bitrate= 944.7kbits/s speed=0.0316x elapsed=0:03:30.83    \nframe=  337 fps=1.6 q=48.9 size=     768KiB time=00:00:06.70 bitrate= 939.1kbits/s speed=0.0317x elapsed=0:03:31.35    \nframe=  338 fps=1.6 q=48.9 size=     768KiB time=00:00:06.72 bitrate= 936.3kbits/s speed=0.0317x elapsed=0:03:31.87    \nframe=  340 fps=1.6 q=42.2 size=     768KiB time=00:00:06.76 bitrate= 930.7kbits/s speed=0.0318x elapsed=0:03:32.38    \nframe=  341 fps=1.6 q=46.3 size=     768KiB time=00:00:06.78 bitrate= 928.0kbits/s speed=0.0318x elapsed=0:03:32.89    \nframe=  342 fps=1.6 q=48.9 size=     768KiB time=00:00:06.80 bitrate= 925.3kbits/s speed=0.0319x elapsed=0:03:33.40    \nframe=  343 fps=1.6 q=49.0 size=     768KiB time=00:00:06.82 bitrate= 922.6kbits/s speed=0.0319x elapsed=0:03:33.92    \nframe=  345 fps=1.6 q=46.1 size=     768KiB time=00:00:06.86 bitrate= 917.2kbits/s speed=0.032x elapsed=0:03:34.44    \nframe=  346 fps=1.6 q=48.9 size=     768KiB time=00:00:06.88 bitrate= 914.5kbits/s speed=0.032x elapsed=0:03:34.98    \nframe=  346 fps=1.6 q=48.9 size=     768KiB time=00:00:06.88 bitrate= 914.5kbits/s speed=0.0319x elapsed=0:03:35.48    \nframe=  348 fps=1.6 q=42.2 size=     768KiB time=00:00:06.92 bitrate= 909.2kbits/s speed=0.032x elapsed=0:03:36.01    \nframe=  348 fps=1.6 q=42.2 size=     768KiB time=00:00:06.92 bitrate= 909.2kbits/s speed=0.032x elapsed=0:03:36.52    \nframe=  349 fps=1.6 q=46.0 size=     768KiB time=00:00:06.94 bitrate= 906.6kbits/s speed=0.032x elapsed=0:03:37.03    \nframe=  351 fps=1.6 q=48.6 size=     768KiB time=00:00:06.98 bitrate= 901.4kbits/s speed=0.0321x elapsed=0:03:37.55    \nframe=  352 fps=1.6 q=42.5 size=     768KiB time=00:00:07.00 bitrate= 898.8kbits/s speed=0.0321x elapsed=0:03:38.07    \nframe=  352 fps=1.6 q=42.5 size=     768KiB time=00:00:07.00 bitrate= 898.8kbits/s speed=0.032x elapsed=0:03:38.61    \nframe=  353 fps=1.6 q=45.9 size=     768KiB time=00:00:07.02 bitrate= 896.3kbits/s speed=0.032x elapsed=0:03:39.14    \nframe=  354 fps=1.6 q=47.8 size=     768KiB time=00:00:07.04 bitrate= 893.7kbits/s speed=0.032x elapsed=0:03:39.66    \nframe=  355 fps=1.6 q=48.5 size=     768KiB time=00:00:07.06 bitrate= 891.2kbits/s speed=0.0321x elapsed=0:03:40.18    \nframe=  355 fps=1.6 q=48.5 size=     768KiB time=00:00:07.06 bitrate= 891.2kbits/s speed=0.032x elapsed=0:03:40.70    \nframe=  356 fps=1.6 q=42.1 size=     768KiB time=00:00:07.08 bitrate= 888.7kbits/s speed=0.032x elapsed=0:03:41.22    \nframe=  357 fps=1.6 q=46.5 size=     768KiB time=00:00:07.10 bitrate= 886.2kbits/s speed=0.032x elapsed=0:03:41.74    \nframe=  358 fps=1.6 q=47.8 size=     768KiB time=00:00:07.12 bitrate= 883.7kbits/s speed=0.032x elapsed=0:03:42.26    \nframe=  360 fps=1.6 q=48.6 size=     768KiB time=00:00:07.16 bitrate= 878.7kbits/s speed=0.0321x elapsed=0:03:42.77    \nframe=  360 fps=1.6 q=48.6 size=     768KiB time=00:00:07.16 bitrate= 878.7kbits/s speed=0.0321x elapsed=0:03:43.28    \nframe=  362 fps=1.6 q=45.9 size=     768KiB time=00:00:07.20 bitrate= 873.9kbits/s speed=0.0322x elapsed=0:03:43.80    \nframe=  363 fps=1.6 q=47.7 size=     768KiB time=00:00:07.22 bitrate= 871.4kbits/s speed=0.0322x elapsed=0:03:44.32    \nframe=  364 fps=1.6 q=48.5 size=     768KiB time=00:00:07.24 bitrate= 869.0kbits/s speed=0.0322x elapsed=0:03:44.84    \nframe=  365 fps=1.6 q=42.5 size=     768KiB time=00:00:07.26 bitrate= 866.6kbits/s speed=0.0322x elapsed=0:03:45.37    \nframe=  366 fps=1.6 q=45.6 size=     768KiB time=00:00:07.28 bitrate= 864.3kbits/s speed=0.0322x elapsed=0:03:45.90    \nframe=  366 fps=1.6 q=45.6 size=     768KiB time=00:00:07.28 bitrate= 864.3kbits/s speed=0.0322x elapsed=0:03:46.41    \nframe=  367 fps=1.6 q=47.7 size=     768KiB time=00:00:07.30 bitrate= 861.9kbits/s speed=0.0322x elapsed=0:03:46.92    \nframe=  369 fps=1.6 q=48.5 size=     768KiB time=00:00:07.34 bitrate= 857.2kbits/s speed=0.0323x elapsed=0:03:47.44    \nframe=  369 fps=1.6 q=48.5 size=     768KiB time=00:00:07.34 bitrate= 857.2kbits/s speed=0.0322x elapsed=0:03:47.97    \nframe=  370 fps=1.6 q=42.4 size=     768KiB time=00:00:07.36 bitrate= 854.9kbits/s speed=0.0322x elapsed=0:03:48.49    \nframe=  372 fps=1.6 q=47.8 size=     768KiB time=00:00:07.40 bitrate= 850.2kbits/s speed=0.0323x elapsed=0:03:49.00    \nframe=  373 fps=1.6 q=48.4 size=     768KiB time=00:00:07.42 bitrate= 848.0kbits/s speed=0.0323x elapsed=0:03:49.56    \nframe=  374 fps=1.6 q=48.6 size=     768KiB time=00:00:07.44 bitrate= 845.7kbits/s speed=0.0323x elapsed=0:03:50.08    \nframe=  375 fps=1.6 q=42.2 size=     768KiB time=00:00:07.46 bitrate= 843.4kbits/s speed=0.0323x elapsed=0:03:50.60    \nframe=  376 fps=1.6 q=46.0 size=     768KiB time=00:00:07.48 bitrate= 841.2kbits/s speed=0.0324x elapsed=0:03:51.14    \nframe=  378 fps=1.6 q=47.7 size=     768KiB time=00:00:07.52 bitrate= 836.7kbits/s speed=0.0325x elapsed=0:03:51.66    \nframe=  378 fps=1.6 q=47.7 size=     768KiB time=00:00:07.52 bitrate= 836.7kbits/s speed=0.0324x elapsed=0:03:52.17    \nframe=  379 fps=1.6 q=42.1 size=     768KiB time=00:00:07.54 bitrate= 834.5kbits/s speed=0.0324x elapsed=0:03:52.69    \nframe=  379 fps=1.6 q=42.1 size=     768KiB time=00:00:07.54 bitrate= 834.5kbits/s speed=0.0323x elapsed=0:03:53.21    \nframe=  380 fps=1.6 q=46.0 size=     768KiB time=00:00:07.56 bitrate= 832.2kbits/s speed=0.0323x elapsed=0:03:53.74    \nframe=  382 fps=1.6 q=47.9 size=     768KiB time=00:00:07.60 bitrate= 827.9kbits/s speed=0.0324x elapsed=0:03:54.25    \nframe=  382 fps=1.6 q=47.9 size=     768KiB time=00:00:07.60 bitrate= 827.9kbits/s speed=0.0324x elapsed=0:03:54.81    \nframe=  382 fps=1.6 q=47.9 size=     768KiB time=00:00:07.60 bitrate= 827.9kbits/s speed=0.0323x elapsed=0:03:55.35    \nframe=  382 fps=1.6 q=47.9 size=     768KiB time=00:00:07.60 bitrate= 827.9kbits/s speed=0.0322x elapsed=0:03:55.88    \nframe=  383 fps=1.6 q=42.1 size=     768KiB time=00:00:07.62 bitrate= 825.7kbits/s speed=0.0322x elapsed=0:03:56.40    \nframe=  384 fps=1.6 q=46.1 size=     768KiB time=00:00:07.64 bitrate= 823.5kbits/s speed=0.0322x elapsed=0:03:56.96    \nframe=  385 fps=1.6 q=47.8 size=     768KiB time=00:00:07.66 bitrate= 821.4kbits/s speed=0.0323x elapsed=0:03:57.49    \nframe=  386 fps=1.6 q=47.9 size=     768KiB time=00:00:07.68 bitrate= 819.2kbits/s speed=0.0323x elapsed=0:03:58.02    \nframe=  386 fps=1.6 q=47.9 size=     768KiB time=00:00:07.68 bitrate= 819.2kbits/s speed=0.0322x elapsed=0:03:58.55    \nframe=  386 fps=1.6 q=47.9 size=     768KiB time=00:00:07.68 bitrate= 819.2kbits/s speed=0.0321x elapsed=0:03:59.06    \nframe=  386 fps=1.6 q=47.9 size=     768KiB time=00:00:07.68 bitrate= 819.2kbits/s speed=0.0321x elapsed=0:03:59.59    \nframe=  387 fps=1.6 q=41.7 size=     768KiB time=00:00:07.70 bitrate= 817.1kbits/s speed=0.0321x elapsed=0:04:00.13    \nframe=  387 fps=1.6 q=41.7 size=     768KiB time=00:00:07.70 bitrate= 817.1kbits/s speed=0.032x elapsed=0:04:00.64    \nframe=  387 fps=1.6 q=41.7 size=     768KiB time=00:00:07.70 bitrate= 817.1kbits/s speed=0.0319x elapsed=0:04:01.18    \nframe=  388 fps=1.6 q=45.9 size=     768KiB time=00:00:07.72 bitrate= 815.0kbits/s speed=0.0319x elapsed=0:04:01.73    \nframe=  388 fps=1.6 q=45.9 size=     768KiB time=00:00:07.72 bitrate= 815.0kbits/s speed=0.0319x elapsed=0:04:02.28    \nframe=  389 fps=1.6 q=48.1 size=     768KiB time=00:00:07.74 bitrate= 812.9kbits/s speed=0.0319x elapsed=0:04:02.82    \nframe=  389 fps=1.6 q=48.1 size=     768KiB time=00:00:07.74 bitrate= 812.9kbits/s speed=0.0318x elapsed=0:04:03.34    \nframe=  390 fps=1.6 q=49.0 size=     768KiB time=00:00:07.76 bitrate= 810.8kbits/s speed=0.0318x elapsed=0:04:03.87    \nframe=  390 fps=1.6 q=49.0 size=     768KiB time=00:00:07.76 bitrate= 810.8kbits/s speed=0.0318x elapsed=0:04:04.39    \nframe=  390 fps=1.6 q=49.0 size=     768KiB time=00:00:07.76 bitrate= 810.8kbits/s speed=0.0317x elapsed=0:04:04.97    \nframe=  393 fps=1.6 q=48.0 size=     768KiB time=00:00:07.82 bitrate= 804.6kbits/s speed=0.0319x elapsed=0:04:05.50    \nframe=  393 fps=1.6 q=48.0 size=     768KiB time=00:00:07.82 bitrate= 804.6kbits/s speed=0.0318x elapsed=0:04:06.05    \nframe=  395 fps=1.6 q=48.0 size=     768KiB time=00:00:07.86 bitrate= 800.5kbits/s speed=0.0319x elapsed=0:04:06.56    \nframe=  395 fps=1.6 q=48.0 size=     768KiB time=00:00:07.86 bitrate= 800.5kbits/s speed=0.0318x elapsed=0:04:07.08    \nframe=  396 fps=1.6 q=42.6 size=     768KiB time=00:00:07.88 bitrate= 798.5kbits/s speed=0.0318x elapsed=0:04:07.60    \nframe=  396 fps=1.6 q=42.6 size=     768KiB time=00:00:07.88 bitrate= 798.5kbits/s speed=0.0318x elapsed=0:04:08.11    \nframe=  397 fps=1.6 q=46.0 size=     768KiB time=00:00:07.90 bitrate= 796.4kbits/s speed=0.0318x elapsed=0:04:08.63    \nframe=  397 fps=1.6 q=46.0 size=     768KiB time=00:00:07.90 bitrate= 796.4kbits/s speed=0.0317x elapsed=0:04:09.15    \nframe=  399 fps=1.6 q=48.0 size=     768KiB time=00:00:07.94 bitrate= 792.4kbits/s speed=0.0318x elapsed=0:04:09.69    \nframe=  399 fps=1.6 q=48.0 size=     768KiB time=00:00:07.94 bitrate= 792.4kbits/s speed=0.0317x elapsed=0:04:10.24    \nframe=  399 fps=1.6 q=48.0 size=     768KiB time=00:00:07.94 bitrate= 792.4kbits/s speed=0.0317x elapsed=0:04:10.76    \nframe=  399 fps=1.6 q=48.0 size=     768KiB time=00:00:07.94 bitrate= 792.4kbits/s speed=0.0316x elapsed=0:04:11.31    \nframe=  400 fps=1.6 q=42.4 size=     768KiB time=00:00:07.96 bitrate= 790.4kbits/s speed=0.0316x elapsed=0:04:11.85    \nframe=  400 fps=1.6 q=42.4 size=     768KiB time=00:00:07.96 bitrate= 790.4kbits/s speed=0.0315x elapsed=0:04:12.42    \nframe=  401 fps=1.6 q=46.6 size=     768KiB time=00:00:07.98 bitrate= 788.4kbits/s speed=0.0315x elapsed=0:04:12.96    \nframe=  401 fps=1.6 q=46.6 size=     768KiB time=00:00:07.98 bitrate= 788.4kbits/s speed=0.0315x elapsed=0:04:13.50    \nframe=  403 fps=1.6 q=47.7 size=     768KiB time=00:00:08.00 bitrate= 786.5kbits/s speed=0.0315x elapsed=0:04:14.04    \nframe=  403 fps=1.6 q=47.7 size=     768KiB time=00:00:08.02 bitrate= 784.5kbits/s speed=0.0315x elapsed=0:04:14.59    \nframe=  404 fps=1.6 q=47.8 size=     768KiB time=00:00:08.04 bitrate= 782.6kbits/s speed=0.0315x elapsed=0:04:15.10    \nframe=  405 fps=1.6 q=42.5 size=     768KiB time=00:00:08.06 bitrate= 780.6kbits/s speed=0.0315x elapsed=0:04:15.61    \nframe=  405 fps=1.6 q=42.5 size=     768KiB time=00:00:08.06 bitrate= 780.6kbits/s speed=0.0315x elapsed=0:04:16.14    \nframe=  405 fps=1.6 q=42.5 size=     768KiB time=00:00:08.06 bitrate= 780.6kbits/s speed=0.0314x elapsed=0:04:16.71    \nframe=  406 fps=1.6 q=45.8 size=     768KiB time=00:00:08.08 bitrate= 778.7kbits/s speed=0.0314x elapsed=0:04:17.25    \nframe=  406 fps=1.6 q=45.8 size=     768KiB time=00:00:08.08 bitrate= 778.7kbits/s speed=0.0313x elapsed=0:04:17.80    \nframe=  408 fps=1.6 q=47.8 size=     768KiB time=00:00:08.12 bitrate= 774.9kbits/s speed=0.0314x elapsed=0:04:18.32    \nframe=  408 fps=1.6 q=47.8 size=     768KiB time=00:00:08.12 bitrate= 774.9kbits/s speed=0.0314x elapsed=0:04:18.83    \nframe=  409 fps=1.6 q=42.2 size=     768KiB time=00:00:08.14 bitrate= 772.9kbits/s speed=0.0314x elapsed=0:04:19.34    \nframe=  409 fps=1.6 q=42.2 size=     768KiB time=00:00:08.14 bitrate= 772.9kbits/s speed=0.0313x elapsed=0:04:19.86    \nframe=  409 fps=1.6 q=42.2 size=     768KiB time=00:00:08.14 bitrate= 772.9kbits/s speed=0.0313x elapsed=0:04:20.42    \nframe=  409 fps=1.6 q=42.2 size=     768KiB time=00:00:08.14 bitrate= 772.9kbits/s speed=0.0312x elapsed=0:04:20.97    \nframe=  409 fps=1.6 q=42.2 size=     768KiB time=00:00:08.14 bitrate= 772.9kbits/s speed=0.0311x elapsed=0:04:21.53    \nframe=  410 fps=1.6 q=45.9 size=     768KiB time=00:00:08.16 bitrate= 771.1kbits/s speed=0.0311x elapsed=0:04:22.05    \nframe=  411 fps=1.6 q=47.8 size=     768KiB time=00:00:08.18 bitrate= 769.2kbits/s speed=0.0312x elapsed=0:04:22.57    \nframe=  412 fps=1.6 q=47.7 size=     768KiB time=00:00:08.20 bitrate= 767.3kbits/s speed=0.0312x elapsed=0:04:23.10    \nframe=  412 fps=1.6 q=47.7 size=     768KiB time=00:00:08.20 bitrate= 767.3kbits/s speed=0.0311x elapsed=0:04:23.63    \nframe=  412 fps=1.6 q=47.7 size=     768KiB time=00:00:08.20 bitrate= 767.3kbits/s speed=0.031x elapsed=0:04:24.14    \nframe=  413 fps=1.6 q=41.6 size=     768KiB time=00:00:08.22 bitrate= 765.4kbits/s speed=0.0311x elapsed=0:04:24.67    \nframe=  413 fps=1.6 q=41.6 size=     768KiB time=00:00:08.22 bitrate= 765.4kbits/s speed=0.031x elapsed=0:04:25.23    \nframe=  413 fps=1.6 q=41.6 size=     768KiB time=00:00:08.22 bitrate= 765.4kbits/s speed=0.0309x elapsed=0:04:25.73    \nframe=  414 fps=1.6 q=45.3 size=     768KiB time=00:00:08.24 bitrate= 763.6kbits/s speed=0.0309x elapsed=0:04:26.25    \nframe=  415 fps=1.6 q=47.6 size=     768KiB time=00:00:08.26 bitrate= 761.7kbits/s speed=0.031x elapsed=0:04:26.82    \nframe=  416 fps=1.6 q=47.6 size=     768KiB time=00:00:08.28 bitrate= 759.9kbits/s speed=0.031x elapsed=0:04:27.34    \nframe=  416 fps=1.6 q=47.6 size=     768KiB time=00:00:08.28 bitrate= 759.9kbits/s speed=0.0309x elapsed=0:04:27.86    \nframe=  417 fps=1.6 q=47.7 size=     768KiB time=00:00:08.30 bitrate= 758.0kbits/s speed=0.0309x elapsed=0:04:28.39    \nframe=  417 fps=1.6 q=47.7 size=     768KiB time=00:00:08.30 bitrate= 758.0kbits/s speed=0.0309x elapsed=0:04:28.94    \nframe=  418 fps=1.6 q=41.9 size=     768KiB time=00:00:08.32 bitrate= 756.2kbits/s speed=0.0309x elapsed=0:04:29.45    \nframe=  418 fps=1.5 q=41.9 size=     768KiB time=00:00:08.32 bitrate= 756.2kbits/s speed=0.0308x elapsed=0:04:29.97    \nframe=  418 fps=1.5 q=41.9 size=     768KiB time=00:00:08.32 bitrate= 756.2kbits/s speed=0.0308x elapsed=0:04:30.49    \nframe=  419 fps=1.5 q=45.5 size=     768KiB time=00:00:08.34 bitrate= 754.4kbits/s speed=0.0308x elapsed=0:04:31.01    \nframe=  420 fps=1.5 q=47.7 size=     768KiB time=00:00:08.36 bitrate= 752.6kbits/s speed=0.0308x elapsed=0:04:31.53    \nframe=  421 fps=1.5 q=47.7 size=     768KiB time=00:00:08.38 bitrate= 750.8kbits/s speed=0.0308x elapsed=0:04:32.05    \nframe=  421 fps=1.5 q=47.7 size=     768KiB time=00:00:08.38 bitrate= 750.8kbits/s speed=0.0307x elapsed=0:04:32.57    \nframe=  422 fps=1.5 q=42.1 size=     768KiB time=00:00:08.40 bitrate= 749.0kbits/s speed=0.0308x elapsed=0:04:33.08    \nframe=  423 fps=1.5 q=45.9 size=    1024KiB time=00:00:08.42 bitrate= 996.3kbits/s speed=0.0308x elapsed=0:04:33.61    \nframe=  423 fps=1.5 q=45.9 size=    1024KiB time=00:00:08.42 bitrate= 996.3kbits/s speed=0.0307x elapsed=0:04:34.14    \nframe=  423 fps=1.5 q=45.9 size=    1024KiB time=00:00:08.42 bitrate= 996.3kbits/s speed=0.0307x elapsed=0:04:34.67    \nframe=  424 fps=1.5 q=47.7 size=    1024KiB time=00:00:08.44 bitrate= 994.0kbits/s speed=0.0307x elapsed=0:04:35.22    \nframe=  425 fps=1.5 q=47.7 size=    1024KiB time=00:00:08.46 bitrate= 991.6kbits/s speed=0.0307x elapsed=0:04:35.74    \nframe=  425 fps=1.5 q=47.7 size=    1024KiB time=00:00:08.46 bitrate= 991.6kbits/s speed=0.0306x elapsed=0:04:36.26    \nframe=  426 fps=1.5 q=41.6 size=    1024KiB time=00:00:08.48 bitrate= 989.3kbits/s speed=0.0306x elapsed=0:04:36.79    \nframe=  427 fps=1.5 q=46.2 size=    1024KiB time=00:00:08.50 bitrate= 986.9kbits/s speed=0.0307x elapsed=0:04:37.31    \nframe=  428 fps=1.5 q=46.9 size=    1024KiB time=00:00:08.52 bitrate= 984.6kbits/s speed=0.0307x elapsed=0:04:37.85    \nframe=  429 fps=1.5 q=47.6 size=    1024KiB time=00:00:08.54 bitrate= 982.3kbits/s speed=0.0307x elapsed=0:04:38.42    \nframe=  430 fps=1.5 q=47.6 size=    1024KiB time=00:00:08.56 bitrate= 980.0kbits/s speed=0.0307x elapsed=0:04:39.03    \nframe=  430 fps=1.5 q=47.6 size=    1024KiB time=00:00:08.56 bitrate= 980.0kbits/s speed=0.0306x elapsed=0:04:39.59    \nframe=  430 fps=1.5 q=47.6 size=    1024KiB time=00:00:08.56 bitrate= 980.0kbits/s speed=0.0306x elapsed=0:04:40.09    \nframe=  431 fps=1.5 q=41.9 size=    1024KiB time=00:00:08.58 bitrate= 977.7kbits/s speed=0.0306x elapsed=0:04:40.61    \nframe=  431 fps=1.5 q=41.9 size=    1024KiB time=00:00:08.58 bitrate= 977.7kbits/s speed=0.0305x elapsed=0:04:41.14    \nframe=  431 fps=1.5 q=41.9 size=    1024KiB time=00:00:08.58 bitrate= 977.7kbits/s speed=0.0305x elapsed=0:04:41.65    \nframe=  432 fps=1.5 q=45.3 size=    1024KiB time=00:00:08.60 bitrate= 975.5kbits/s speed=0.0305x elapsed=0:04:42.18    \nframe=  433 fps=1.5 q=47.6 size=    1024KiB time=00:00:08.62 bitrate= 973.2kbits/s speed=0.0305x elapsed=0:04:42.72    \nframe=  434 fps=1.5 q=47.6 size=    1024KiB time=00:00:08.64 bitrate= 970.9kbits/s speed=0.0305x elapsed=0:04:43.23    \nframe=  434 fps=1.5 q=47.6 size=    1024KiB time=00:00:08.64 bitrate= 970.9kbits/s speed=0.0304x elapsed=0:04:43.76    \nframe=  435 fps=1.5 q=47.7 size=    1024KiB time=00:00:08.66 bitrate= 968.7kbits/s speed=0.0305x elapsed=0:04:44.29    \nframe=  435 fps=1.5 q=47.7 size=    1024KiB time=00:00:08.66 bitrate= 968.7kbits/s speed=0.0304x elapsed=0:04:44.83    \nframe=  435 fps=1.5 q=47.7 size=    1024KiB time=00:00:08.66 bitrate= 968.7kbits/s speed=0.0303x elapsed=0:04:45.38    \nframe=  437 fps=1.5 q=44.0 size=    1024KiB time=00:00:08.70 bitrate= 964.2kbits/s speed=0.0304x elapsed=0:04:45.91    \nframe=  438 fps=1.5 q=47.8 size=    1024KiB time=00:00:08.72 bitrate= 962.0kbits/s speed=0.0304x elapsed=0:04:46.44    \nframe=  438 fps=1.5 q=47.8 size=    1024KiB time=00:00:08.72 bitrate= 962.0kbits/s speed=0.0304x elapsed=0:04:46.96    \nframe=  440 fps=1.5 q=47.9 size=    1024KiB time=00:00:08.76 bitrate= 957.6kbits/s speed=0.0305x elapsed=0:04:47.47    \nframe=  440 fps=1.5 q=47.9 size=    1024KiB time=00:00:08.76 bitrate= 957.6kbits/s speed=0.0304x elapsed=0:04:47.99    \nframe=  440 fps=1.5 q=47.9 size=    1024KiB time=00:00:08.76 bitrate= 957.6kbits/s speed=0.0304x elapsed=0:04:48.51    \nframe=  441 fps=1.5 q=41.8 size=    1024KiB time=00:00:08.78 bitrate= 955.5kbits/s speed=0.0304x elapsed=0:04:49.03    \nframe=  441 fps=1.5 q=41.8 size=    1024KiB time=00:00:08.78 bitrate= 955.5kbits/s speed=0.0303x elapsed=0:04:49.58    \nframe=  442 fps=1.5 q=46.5 size=    1024KiB time=00:00:08.80 bitrate= 953.3kbits/s speed=0.0303x elapsed=0:04:50.13    \nframe=  442 fps=1.5 q=46.5 size=    1024KiB time=00:00:08.80 bitrate= 953.3kbits/s speed=0.0303x elapsed=0:04:50.77    \nframe=  444 fps=1.5 q=47.7 size=    1024KiB time=00:00:08.84 bitrate= 949.0kbits/s speed=0.0303x elapsed=0:04:51.29    \nframe=  445 fps=1.5 q=48.0 size=    1024KiB time=00:00:08.86 bitrate= 946.8kbits/s speed=0.0304x elapsed=0:04:51.82    \nframe=  445 fps=1.5 q=48.0 size=    1024KiB time=00:00:08.86 bitrate= 946.8kbits/s speed=0.0303x elapsed=0:04:52.42    \nframe=  445 fps=1.5 q=48.0 size=    1024KiB time=00:00:08.86 bitrate= 946.8kbits/s speed=0.0302x elapsed=0:04:53.02    \nframe=  446 fps=1.5 q=42.2 size=    1024KiB time=00:00:08.88 bitrate= 944.7kbits/s speed=0.0302x elapsed=0:04:53.56    \nframe=  446 fps=1.5 q=42.2 size=    1024KiB time=00:00:08.88 bitrate= 944.7kbits/s speed=0.0302x elapsed=0:04:54.10    \nframe=  446 fps=1.5 q=42.2 size=    1024KiB time=00:00:08.88 bitrate= 944.7kbits/s speed=0.0301x elapsed=0:04:54.66    \nframe=  446 fps=1.5 q=42.2 size=    1024KiB time=00:00:08.88 bitrate= 944.7kbits/s speed=0.0301x elapsed=0:04:55.24    \nframe=  446 fps=1.5 q=42.2 size=    1024KiB time=00:00:08.88 bitrate= 944.7kbits/s speed=0.03x elapsed=0:04:55.77    \nframe=  447 fps=1.5 q=46.6 size=    1024KiB time=00:00:08.90 bitrate= 942.6kbits/s speed=0.03x elapsed=0:04:56.42    \nframe=  449 fps=1.5 q=47.7 size=    1024KiB time=00:00:08.94 bitrate= 938.4kbits/s speed=0.0301x elapsed=0:04:56.96    \nframe=  449 fps=1.5 q=47.7 size=    1024KiB time=00:00:08.94 bitrate= 938.4kbits/s speed=0.03x elapsed=0:04:57.51    \nframe=  449 fps=1.5 q=47.7 size=    1024KiB time=00:00:08.94 bitrate= 938.4kbits/s speed=0.03x elapsed=0:04:58.06    \nframe=  449 fps=1.5 q=47.7 size=    1024KiB time=00:00:08.94 bitrate= 938.4kbits/s speed=0.0299x elapsed=0:04:58.61    \nframe=  449 fps=1.5 q=47.7 size=    1024KiB time=00:00:08.94 bitrate= 938.4kbits/s speed=0.0299x elapsed=0:04:59.16    \nframe=  449 fps=1.5 q=47.7 size=    1024KiB time=00:00:08.94 bitrate= 938.4kbits/s speed=0.0298x elapsed=0:04:59.68    \nframe=  450 fps=1.5 q=48.0 size=    1024KiB time=00:00:08.96 bitrate= 936.3kbits/s speed=0.0298x elapsed=0:05:00.24    \nframe=  450 fps=1.5 q=48.0 size=    1024KiB time=00:00:08.96 bitrate= 936.3kbits/s speed=0.0298x elapsed=0:05:00.78    \nframe=  451 fps=1.5 q=41.8 size=    1024KiB time=00:00:08.98 bitrate= 934.2kbits/s speed=0.0298x elapsed=0:05:01.32    \nframe=  451 fps=1.5 q=41.8 size=    1024KiB time=00:00:08.98 bitrate= 934.2kbits/s speed=0.0297x elapsed=0:05:01.86    \nframe=  453 fps=1.5 q=47.0 size=    1024KiB time=00:00:09.02 bitrate= 930.0kbits/s speed=0.0298x elapsed=0:05:02.40    \nframe=  453 fps=1.5 q=47.0 size=    1024KiB time=00:00:09.02 bitrate= 930.0kbits/s speed=0.0298x elapsed=0:05:02.93    \nframe=  453 fps=1.5 q=47.0 size=    1024KiB time=00:00:09.02 bitrate= 930.0kbits/s speed=0.0297x elapsed=0:05:03.45    \nframe=  453 fps=1.5 q=47.0 size=    1024KiB time=00:00:09.02 bitrate= 930.0kbits/s speed=0.0297x elapsed=0:05:03.98    \nframe=  454 fps=1.5 q=46.9 size=    1024KiB time=00:00:09.04 bitrate= 928.0kbits/s speed=0.0297x elapsed=0:05:04.54    \nframe=  454 fps=1.5 q=46.9 size=    1024KiB time=00:00:09.04 bitrate= 928.0kbits/s speed=0.0296x elapsed=0:05:05.06    \nframe=  455 fps=1.5 q=41.5 size=    1024KiB time=00:00:09.06 bitrate= 925.9kbits/s speed=0.0296x elapsed=0:05:05.59    \nframe=  456 fps=1.5 q=44.9 size=    1024KiB time=00:00:09.08 bitrate= 923.9kbits/s speed=0.0297x elapsed=0:05:06.15    \nframe=  458 fps=1.5 q=46.9 size=    1024KiB time=00:00:09.10 bitrate= 921.9kbits/s speed=0.0297x elapsed=0:05:06.67    \nframe=  458 fps=1.5 q=46.9 size=    1024KiB time=00:00:09.12 bitrate= 919.8kbits/s speed=0.0297x elapsed=0:05:07.22    \nframe=  458 fps=1.5 q=46.9 size=    1024KiB time=00:00:09.12 bitrate= 919.8kbits/s speed=0.0296x elapsed=0:05:07.74    \nframe=  459 fps=1.5 q=42.2 size=    1024KiB time=00:00:09.14 bitrate= 917.8kbits/s speed=0.0296x elapsed=0:05:08.29    \nframe=  459 fps=1.5 q=42.2 size=    1024KiB time=00:00:09.14 bitrate= 917.8kbits/s speed=0.0296x elapsed=0:05:08.83    \nframe=  459 fps=1.5 q=42.2 size=    1024KiB time=00:00:09.14 bitrate= 917.8kbits/s speed=0.0295x elapsed=0:05:09.38    \nframe=  460 fps=1.5 q=45.1 size=    1024KiB time=00:00:09.16 bitrate= 915.8kbits/s speed=0.0296x elapsed=0:05:09.91    \nframe=  461 fps=1.5 q=47.6 size=    1024KiB time=00:00:09.18 bitrate= 913.8kbits/s speed=0.0296x elapsed=0:05:10.42    \nframe=  462 fps=1.5 q=47.0 size=    1024KiB time=00:00:09.20 bitrate= 911.8kbits/s speed=0.0296x elapsed=0:05:10.96    \nframe=  462 fps=1.5 q=47.0 size=    1024KiB time=00:00:09.20 bitrate= 911.8kbits/s speed=0.0295x elapsed=0:05:11.51    \nframe=  463 fps=1.5 q=41.6 size=    1024KiB time=00:00:09.22 bitrate= 909.9kbits/s speed=0.0295x elapsed=0:05:12.04    \nframe=  463 fps=1.5 q=41.6 size=    1024KiB time=00:00:09.22 bitrate= 909.9kbits/s speed=0.0295x elapsed=0:05:12.59    \nframe=  463 fps=1.5 q=41.6 size=    1024KiB time=00:00:09.22 bitrate= 909.9kbits/s speed=0.0294x elapsed=0:05:13.12    \nframe=  464 fps=1.5 q=45.0 size=    1024KiB time=00:00:09.24 bitrate= 907.9kbits/s speed=0.0295x elapsed=0:05:13.66    \nframe=  464 fps=1.5 q=45.0 size=    1024KiB time=00:00:09.24 bitrate= 907.9kbits/s speed=0.0294x elapsed=0:05:14.18    \nframe=  464 fps=1.5 q=45.0 size=    1024KiB time=00:00:09.24 bitrate= 907.9kbits/s speed=0.0294x elapsed=0:05:14.69    \nframe=  466 fps=1.5 q=46.8 size=    1024KiB time=00:00:09.28 bitrate= 904.0kbits/s speed=0.0294x elapsed=0:05:15.21    \nframe=  466 fps=1.5 q=46.8 size=    1024KiB time=00:00:09.28 bitrate= 904.0kbits/s speed=0.0294x elapsed=0:05:15.72    \nframe=  467 fps=1.5 q=46.9 size=    1024KiB time=00:00:09.30 bitrate= 902.0kbits/s speed=0.0294x elapsed=0:05:16.24    \nframe=  467 fps=1.5 q=46.9 size=    1024KiB time=00:00:09.30 bitrate= 902.0kbits/s speed=0.0294x elapsed=0:05:16.76    \nframe=  467 fps=1.5 q=46.9 size=    1024KiB time=00:00:09.30 bitrate= 902.0kbits/s speed=0.0293x elapsed=0:05:17.27    \nframe=  467 fps=1.5 q=46.9 size=    1024KiB time=00:00:09.30 bitrate= 902.0kbits/s speed=0.0293x elapsed=0:05:17.78    \nframe=  468 fps=1.5 q=42.1 size=    1024KiB time=00:00:09.32 bitrate= 900.1kbits/s speed=0.0293x elapsed=0:05:18.30    \nframe=  468 fps=1.5 q=42.1 size=    1024KiB time=00:00:09.32 bitrate= 900.1kbits/s speed=0.0292x elapsed=0:05:18.81    \nframe=  469 fps=1.5 q=43.7 size=    1024KiB time=00:00:09.34 bitrate= 898.2kbits/s speed=0.0292x elapsed=0:05:19.33    \nframe=  470 fps=1.5 q=47.6 size=    1024KiB time=00:00:09.36 bitrate= 896.3kbits/s speed=0.0293x elapsed=0:05:19.88    \nframe=  471 fps=1.5 q=47.5 size=    1024KiB time=00:00:09.38 bitrate= 894.3kbits/s speed=0.0293x elapsed=0:05:20.42    \nframe=  472 fps=1.5 q=47.7 size=    1024KiB time=00:00:09.40 bitrate= 892.4kbits/s speed=0.0293x elapsed=0:05:21.00    \nframe=  473 fps=1.5 q=42.0 size=    1024KiB time=00:00:09.42 bitrate= 890.5kbits/s speed=0.0293x elapsed=0:05:21.54    \nframe=  474 fps=1.5 q=43.9 size=    1024KiB time=00:00:09.44 bitrate= 888.7kbits/s speed=0.0293x elapsed=0:05:22.08    \nframe=  474 fps=1.5 q=43.9 size=    1024KiB time=00:00:09.44 bitrate= 888.7kbits/s speed=0.0293x elapsed=0:05:22.60    \nframe=  475 fps=1.5 q=47.7 size=    1024KiB time=00:00:09.46 bitrate= 886.8kbits/s speed=0.0293x elapsed=0:05:23.13    \nframe=  477 fps=1.5 q=47.6 size=    1024KiB time=00:00:09.50 bitrate= 883.0kbits/s speed=0.0294x elapsed=0:05:23.66    \nframe=  477 fps=1.5 q=47.6 size=    1024KiB time=00:00:09.50 bitrate= 883.0kbits/s speed=0.0293x elapsed=0:05:24.21    \nframe=  477 fps=1.5 q=47.6 size=    1024KiB time=00:00:09.50 bitrate= 883.0kbits/s speed=0.0293x elapsed=0:05:24.73    \nframe=  478 fps=1.5 q=42.3 size=    1024KiB time=00:00:09.50 bitrate= 883.0kbits/s speed=0.0292x elapsed=0:05:25.35    \nframe=  478 fps=1.5 q=42.3 size=    1024KiB time=00:00:09.52 bitrate= 881.2kbits/s speed=0.0292x elapsed=0:05:25.95    \nframe=  478 fps=1.5 q=42.3 size=    1024KiB time=00:00:09.52 bitrate= 881.2kbits/s speed=0.0292x elapsed=0:05:26.55    \nframe=  478 fps=1.5 q=42.3 size=    1024KiB time=00:00:09.52 bitrate= 881.2kbits/s speed=0.0291x elapsed=0:05:27.10    \nframe=  478 fps=1.5 q=42.3 size=    1024KiB time=00:00:09.52 bitrate= 881.2kbits/s speed=0.0291x elapsed=0:05:27.64    \nframe=  478 fps=1.5 q=42.3 size=    1024KiB time=00:00:09.52 bitrate= 881.2kbits/s speed=0.029x elapsed=0:05:28.23    \nframe=  478 fps=1.5 q=42.3 size=    1024KiB time=00:00:09.52 bitrate= 881.2kbits/s speed=0.029x elapsed=0:05:28.79    \nframe=  478 fps=1.5 q=42.3 size=    1024KiB time=00:00:09.52 bitrate= 881.2kbits/s speed=0.0289x elapsed=0:05:29.35    \nframe=  478 fps=1.4 q=42.3 size=    1024KiB time=00:00:09.52 bitrate= 881.2kbits/s speed=0.0289x elapsed=0:05:29.96    \nframe=  478 fps=1.4 q=42.3 size=    1024KiB time=00:00:09.52 bitrate= 881.2kbits/s speed=0.0288x elapsed=0:05:30.55    \nframe=  478 fps=1.4 q=42.3 size=    1024KiB time=00:00:09.52 bitrate= 881.2kbits/s speed=0.0287x elapsed=0:05:31.14    \nframe=  478 fps=1.4 q=42.3 size=    1024KiB time=00:00:09.52 bitrate= 881.2kbits/s speed=0.0287x elapsed=0:05:31.71    \nframe=  479 fps=1.4 q=44.9 size=    1024KiB time=00:00:09.54 bitrate= 879.3kbits/s speed=0.0287x elapsed=0:05:32.23    \nframe=  479 fps=1.4 q=44.9 size=    1024KiB time=00:00:09.54 bitrate= 879.3kbits/s speed=0.0287x elapsed=0:05:32.86    \nframe=  479 fps=1.4 q=44.9 size=    1024KiB time=00:00:09.54 bitrate= 879.3kbits/s speed=0.0286x elapsed=0:05:33.53    \nframe=  479 fps=1.4 q=44.9 size=    1024KiB time=00:00:09.54 bitrate= 879.3kbits/s speed=0.0286x elapsed=0:05:34.06    \nframe=  479 fps=1.4 q=44.9 size=    1024KiB time=00:00:09.54 bitrate= 879.3kbits/s speed=0.0285x elapsed=0:05:34.62    \nframe=  479 fps=1.4 q=44.9 size=    1024KiB time=00:00:09.54 bitrate= 879.3kbits/s speed=0.0285x elapsed=0:05:35.19    \nframe=  479 fps=1.4 q=44.9 size=    1024KiB time=00:00:09.54 bitrate= 879.3kbits/s speed=0.0284x elapsed=0:05:35.74    \nframe=  480 fps=1.4 q=47.7 size=    1024KiB time=00:00:09.56 bitrate= 877.5kbits/s speed=0.0284x elapsed=0:05:36.28    \nframe=  481 fps=1.4 q=47.5 size=    1024KiB time=00:00:09.58 bitrate= 875.7kbits/s speed=0.0284x elapsed=0:05:36.81    \nframe=  481 fps=1.4 q=47.5 size=    1024KiB time=00:00:09.58 bitrate= 875.7kbits/s speed=0.0284x elapsed=0:05:37.35    \nframe=  481 fps=1.4 q=47.5 size=    1024KiB time=00:00:09.58 bitrate= 875.7kbits/s speed=0.0284x elapsed=0:05:37.87    \nframe=  482 fps=1.4 q=47.6 size=    1024KiB time=00:00:09.60 bitrate= 873.9kbits/s speed=0.0284x elapsed=0:05:38.39    \nframe=  482 fps=1.4 q=47.6 size=    1024KiB time=00:00:09.60 bitrate= 873.9kbits/s speed=0.0283x elapsed=0:05:38.96    \nframe=  482 fps=1.4 q=47.6 size=    1024KiB time=00:00:09.60 bitrate= 873.9kbits/s speed=0.0283x elapsed=0:05:39.52    \nframe=  482 fps=1.4 q=47.6 size=    1024KiB time=00:00:09.60 bitrate= 873.9kbits/s speed=0.0282x elapsed=0:05:40.09    \nframe=  482 fps=1.4 q=47.6 size=    1024KiB time=00:00:09.60 bitrate= 873.9kbits/s speed=0.0282x elapsed=0:05:40.61    \nframe=  483 fps=1.4 q=41.9 size=    1024KiB time=00:00:09.62 bitrate= 872.0kbits/s speed=0.0282x elapsed=0:05:41.17    \nframe=  483 fps=1.4 q=41.9 size=    1024KiB time=00:00:09.62 bitrate= 872.0kbits/s speed=0.0282x elapsed=0:05:41.72    \nframe=  483 fps=1.4 q=41.9 size=    1024KiB time=00:00:09.62 bitrate= 872.0kbits/s speed=0.0281x elapsed=0:05:42.24    \nframe=  484 fps=1.4 q=46.0 size=    1024KiB time=00:00:09.64 bitrate= 870.2kbits/s speed=0.0281x elapsed=0:05:42.86    \nframe=  484 fps=1.4 q=46.0 size=    1024KiB time=00:00:09.64 bitrate= 870.2kbits/s speed=0.0281x elapsed=0:05:43.38    \nframe=  484 fps=1.4 q=46.0 size=    1024KiB time=00:00:09.64 bitrate= 870.2kbits/s speed=0.028x elapsed=0:05:43.93    \nframe=  485 fps=1.4 q=46.9 size=    1024KiB time=00:00:09.66 bitrate= 868.4kbits/s speed=0.028x elapsed=0:05:44.49    \nframe=  485 fps=1.4 q=46.9 size=    1024KiB time=00:00:09.66 bitrate= 868.4kbits/s speed=0.028x elapsed=0:05:45.02    \nframe=  486 fps=1.4 q=46.8 size=    1024KiB time=00:00:09.68 bitrate= 866.6kbits/s speed=0.028x elapsed=0:05:45.56    \nframe=  486 fps=1.4 q=46.8 size=    1024KiB time=00:00:09.68 bitrate= 866.6kbits/s speed=0.028x elapsed=0:05:46.09    \nframe=  487 fps=1.4 q=46.7 size=    1024KiB time=00:00:09.70 bitrate= 864.8kbits/s speed=0.028x elapsed=0:05:46.60    \nframe=  487 fps=1.4 q=46.7 size=    1024KiB time=00:00:09.70 bitrate= 864.8kbits/s speed=0.0279x elapsed=0:05:47.13    \nframe=  488 fps=1.4 q=42.1 size=    1024KiB time=00:00:09.72 bitrate= 863.1kbits/s speed=0.028x elapsed=0:05:47.65    \nframe=  488 fps=1.4 q=42.1 size=    1024KiB time=00:00:09.72 bitrate= 863.1kbits/s speed=0.0279x elapsed=0:05:48.22    \nframe=  489 fps=1.4 q=45.7 size=    1024KiB time=00:00:09.74 bitrate= 861.3kbits/s speed=0.0279x elapsed=0:05:48.79    \nframe=  489 fps=1.4 q=45.7 size=    1024KiB time=00:00:09.74 bitrate= 861.3kbits/s speed=0.0279x elapsed=0:05:49.36    \nframe=  490 fps=1.4 q=46.7 size=    1024KiB time=00:00:09.76 bitrate= 859.5kbits/s speed=0.0279x elapsed=0:05:49.92    \nframe=  491 fps=1.4 q=46.7 size=    1024KiB time=00:00:09.78 bitrate= 857.8kbits/s speed=0.0279x elapsed=0:05:50.43    \nframe=  491 fps=1.4 q=46.7 size=    1024KiB time=00:00:09.78 bitrate= 857.8kbits/s speed=0.0279x elapsed=0:05:50.95    \nframe=  492 fps=1.4 q=46.7 size=    1024KiB time=00:00:09.80 bitrate= 856.0kbits/s speed=0.0279x elapsed=0:05:51.47    \nframe=  492 fps=1.4 q=46.7 size=    1024KiB time=00:00:09.80 bitrate= 856.0kbits/s speed=0.0278x elapsed=0:05:52.04    \nframe=  492 fps=1.4 q=46.7 size=    1024KiB time=00:00:09.80 bitrate= 856.0kbits/s speed=0.0278x elapsed=0:05:52.58    \nframe=  492 fps=1.4 q=46.7 size=    1024KiB time=00:00:09.80 bitrate= 856.0kbits/s speed=0.0278x elapsed=0:05:53.11    \nframe=  493 fps=1.4 q=42.1 size=    1024KiB time=00:00:09.82 bitrate= 854.3kbits/s speed=0.0278x elapsed=0:05:53.65    \nframe=  494 fps=1.4 q=44.7 size=    1024KiB time=00:00:09.84 bitrate= 852.5kbits/s speed=0.0278x elapsed=0:05:54.16    \nframe=  494 fps=1.4 q=44.7 size=    1024KiB time=00:00:09.84 bitrate= 852.5kbits/s speed=0.0277x elapsed=0:05:54.69    \nframe=  494 fps=1.4 q=44.7 size=    1024KiB time=00:00:09.84 bitrate= 852.5kbits/s speed=0.0277x elapsed=0:05:55.20    \nframe=  494 fps=1.4 q=44.7 size=    1024KiB time=00:00:09.84 bitrate= 852.5kbits/s speed=0.0277x elapsed=0:05:55.72    \nframe=  494 fps=1.4 q=44.7 size=    1024KiB time=00:00:09.84 bitrate= 852.5kbits/s speed=0.0276x elapsed=0:05:56.25    \nframe=  495 fps=1.4 q=46.7 size=    1024KiB time=00:00:09.86 bitrate= 850.8kbits/s speed=0.0276x elapsed=0:05:56.77    \nframe=  496 fps=1.4 q=45.8 size=    1024KiB time=00:00:09.88 bitrate= 849.1kbits/s speed=0.0277x elapsed=0:05:57.29    \nframe=  497 fps=1.4 q=43.5 size=    1024KiB time=00:00:09.90 bitrate= 847.4kbits/s speed=0.0277x elapsed=0:05:57.83    \nframe=  497 fps=1.4 q=43.5 size=    1024KiB time=00:00:09.90 bitrate= 847.4kbits/s speed=0.0276x elapsed=0:05:58.38    \nframe=  498 fps=1.4 q=43.3 size=    1024KiB time=00:00:09.92 bitrate= 845.7kbits/s speed=0.0276x elapsed=0:05:58.90    \n[mp4 @ 0000027ec006b680] Starting second pass: moving the moov atom to the beginning of the file\n[out#0/mp4 @ 0000027ec006b580] video:1211KiB audio:0KiB subtitle:0KiB other streams:0KiB global headers:2KiB muxing overhead: 0.765819%\nframe=  500 fps=1.4 q=43.5 Lsize=    1220KiB time=00:00:09.96 bitrate=1003.8kbits/s speed=0.0277x elapsed=0:05:59.12    \nx265 [info]: frame I:      2, Avg QP:43.76  kb/s: 8063.60 \nx265 [info]: frame P:    112, Avg QP:42.32  kb/s: 2800.13 \nx265 [info]: frame B:    386, Avg QP:47.01  kb/s: 428.90  \nx265 [info]: Weighted P-Frames: Y:0.0% UV:0.0%\n\nencoded 500 frames in 358.67s (1.39 fps), 990.59 kb/s, Avg QP:45.95\n",
  "seconds": 359.4175808429718,
  "probe_out": {}
}